<?xml version="1.0" encoding="UTF-8"?>
<svg id="Warstwa_2" data-name="Warstwa 2" xmlns="http://www.w3.org/2000/svg" viewBox="0 0 1149.07 277.55">
  <defs>
    <style>
      .cls-1 {
        fill: #63847b;
      }
    </style>
  </defs>
  <g id="Warstwa_1-2" data-name="Warstwa 1">
    <g>
      <path class="cls-1" d="M129.61,276.61c-.44,0-.84-.15-1.15-.45-.06-.04-9.22-8.54-16.66-24.94,0,0,0,0,0,0-.02,0-.07-.05-.1-.13-.57-.86-5.57-9.16-11.58-21.53-4.8,1.13-8.42,1.65-11.36,1.65-4.32,0-7.47-1.08-10.24-3.5-2.09-1.82-3.36-2.34-5.89-3.39-1.99-.8-4.13-1.68-7.27-3.25-6.97-3.48-12.15-18.73-14.05-25.12-.07-.15-.11-.32-.14-.47-.23-.85.22-2.06,1.16-2.31.11-.03.22-.05.34-.05.78,0,1.49.67,1.77,1.3v.02s.06.1.08.17l.02.05c.97,2.41,8.87,8.62,13.86,10.43,3.22,1.17,6.11,3.75,8.9,6.25l.13.12c1.79,1.62,4.02,3.63,6.19,4.92,3.06,1.81,8.55,3.86,12.86,5.32-2.46-5.41-4.88-11.2-7.2-17.22-.83-.93-11.47-12.94-23.98-32.4-3.51-1.43-30.57-12.61-35.44-18.91-.98-1.31-1.89-2.54-2.77-3.73-3.2-4.39-5.96-8.17-12.35-13.3C6.02,129.19.5,117.36.45,117.24c-.33-.78-.08-1.68.59-2.14.28-.2.63-.31.99-.31.46,0,.89.18,1.21.5,1.7,1.62,10.21,9.59,15.66,11.2.89.26,1.77.49,2.64.71l.44.11c5.5,1.39,11.19,2.83,15.71,10.38,3.97,6.62,12.18,16.42,20.57,22.94-13.05-22.3-22.6-44.76-28.38-66.77-3.26.9-6.27,1.35-8.95,1.35-15.02,0-17.44-13.44-17.67-14.97-.09-.91.44-1.69,1.25-1.9,3.04-.81,5.88-1.23,8.46-1.27-1.1-4.32-1.68-12.31,5.43-19.89.32-.35.77-.55,1.25-.55.11,0,.22.01.33.03,10.61,2.08,14.68,9.54,16.04,13.04,2.25-1.57,4.86-2.92,7.74-4.01.19-.07.4-.11.6-.11.62,0,1.2.34,1.51.88.91,1.78,3.56,7.81,1.06,14.31-1.94,5.11-6.58,9.14-13.79,11.99,12.49,47.85,40.16,86.47,52.64,102.15-.46-1.35-.9-2.7-1.32-3.98-.17-.21-.27-.52-.27-.84-.47-1.43-.96-2.96-1.45-4.51-.13-.2-.21-.5-.21-.82-6.44-21.27-9.66-41.45-9.58-59.9-7.96-1.18-13.56-4.17-16.65-8.89-4.31-6.62-2.01-14.13-1.98-14.21.2-.71.88-1.21,1.65-1.21.08,0,.15,0,.23.02,3.04.46,5.83,1.21,8.3,2.22.57-3.68,2.96-11.79,12.89-16.08.22-.1.45-.15.69-.15.35,0,.68.11.96.31,8.58,5.92,9.67,13.86,9.5,18.33,2.05-.42,4.29-.63,6.67-.63.66,0,1.33.02,2.02.05.84.04,1.53.7,1.62,1.54.03.3.72,7.55-4.27,13.08-3.59,3.99-9.1,6.01-16.39,6.01-.49,0-1-.03-1.51-.06l-.3-.02c-.02,16.31,2.55,33.93,7.65,52.4.87-4.28,1.97-10.14,2.7-15.69.76-5.89.47-9.95.18-13.87l-.02-.23c-.25-2.92-.5-5.94-.17-9.57.73-8.04,2.27-12.48,2.29-12.52.25-.69.89-1.16,1.59-1.16.09,0,.18,0,.27.02.81.11,1.44.8,1.48,1.62,0,.15.68,14.53,3.16,21.08,2.79,7.44,3.89,15.5,3.17,23.32-.64,7.1-8.29,16.82-10.81,19.84,5.66,17.17,12.47,32.07,17.58,42.19-2.98-12.31-3.85-25.44-2.59-39.09.61-6.58,2.02-12.64,4.33-18.5-1.79-4.13-9.41-24.32,1.53-46.75-4.15-5.72-9.5-22.17-6.29-29.07,2.83-6.02,2.04-14.52.58-18.63-1.84-5.31,2.79-11.97,2.99-12.25.32-.46.86-.73,1.43-.73.17,0,.33.02.5.07.69.2,1.18.84,1.22,1.59.13,3.98,1.66,7.45,3.29,11.12l.14.31c1.24,2.81,2.64,5.99,3.64,9.78,2,7.67.93,11.21-.41,15.69-.28.92-.63,2.1-.98,3.45-.61,2.41-.89,5.6-.83,9.48,14.93-25.11,20.63-47.01,6.19-83.37-4.16,1.84-7.97,2.77-11.33,2.77-12.46,0-16.17-12.01-16.21-12.13-.23-.82.15-1.68.91-2.04,2.75-1.27,5.48-2.16,8.14-2.66-1.81-4.08-3.75-11.88,1.94-20.56.29-.46.87-.77,1.43-.77,10.84.24,16.15,6.89,18.08,10.1,1.92-1.92,4.25-3.68,6.93-5.26.27-.16.58-.24.88-.24.51,0,.99.23,1.32.63.51.64,4.95,6.46,3.5,13.91-1.1,5.64-5.3,10.59-12.49,14.71,4.4,11.05,7.09,20.89,8.18,30,.45-4.9.35-10.21.27-14.61v-.2c-.1-3.65-.13-6.27.06-8.04.76-6.09,3.81-9.91,7.34-14.33l.65-.79c3.22-4.04,5.43-10.48,5.84-11.73.23-.75.91-1.25,1.68-1.25.06,0,.12,0,.19.01.86.11,1.5.79,1.53,1.62v.27c.14,4.23.15,14.84-2.75,22.06-3.25,8.13-4.4,12.73-4.85,23.88-.43,10.42-8.05,21.75-10.44,25.07-2.08,11.99-6.98,23.54-16.37,38.62-12.02,19.32-8.03,37.98-5.44,45.77,4.26-8.74,10.04-15.74,15.61-22.16-.63-3.22-1.79-10.93.27-16.3.96-2.55,1.73-4.16,2.48-5.72,1.1-2.31,2.04-4.38,3.39-8.66,2.28-7.34,2.75-21.7,2.75-21.83.04-.86.68-1.57,1.52-1.68.08,0,.15-.01.22-.01.77,0,1.45.52,1.66,1.26l.07.27c1.04,3.98,2.8,11.68,2.93,18.45.13,8.6-1.35,13.64-5.12,17.39-2.4,2.41-4.99,7.37-5.38,11.35,13.43-15.39,29.68-34.82,21.22-83.42-2.57-.07-4.57-.86-5.94-2.36-1.98-2.18-1.86-5.09-1.79-5.35.07-.8.75-1.46,1.6-1.51.34-.02.67-.03.98-.03s.63.01.94.03c.19-1.75.99-4.11,3.57-5.94.29-.21.64-.32,1-.32.23,0,.46.04.68.13,2.94,1.23,4.23,3.35,4.79,5.01.66-.2,1.27-.34,1.9-.44.09-.01.19-.02.28-.02.76,0,1.44.49,1.64,1.2.22.78.79,3.4-.75,5.82-1.06,1.67-2.9,2.82-5.47,3.41,1.07,6.28,1.8,12.25,2.16,17.77,2.26-5.44,5.52-14.35,5.52-20.62,0-3.93-.62-6.61-1.07-8.57-.91-4.06-1.7-7.56,1.18-15.37,4.21-11.36,6.66-23.63,6.67-23.72.16-.8.79-1.35,1.57-1.41h.12c.74,0,1.39.45,1.65,1.14l.07.2c1.75,5.09,7.33,22.3,5.69,29.94-1.68,7.62-.91,14.06.16,22.98l.14,1.02c.03.72.43,16.97-21.51,25.6,0,.22-.01.45-.02.67,0,.27-.01.53-.03.8,23.9,11.82,34.78,33.7,31.46,63.29-1.35,11.92,5.82,21.51,10.11,27.25,1.32,1.74,2.29,3.05,2.76,4.1,2.97,6.39-4.64,10.28-7.51,11.75-1.19.61-1.89,1.22-2.06,1.78-.22.77.44,1.96,1.13,3.21l.73,1.3c1.59,3.06-1.49,6.54-3.62,8.46.6.83.94,1.77,1,2.79.1,2.55-1.53,5.29-5.29,8.9-1.99,1.86-1.74,3.98-1.42,6.66l.02.19c.23,1.88.47,3.81-.22,5.7-2.94,7.69-10.15,8.58-15.33,8.58h0c-3.49,0-7.13-.46-10.65-.9-3.42-.43-6.96-.87-10.09-.87-1.88,0-3.44.16-4.77.48-4.78,1.17-7.53,8.24-9,13.97-1.71,6.68-2.42,14.29-2.5,18.79-.04.7-.46,1.29-1.07,1.54-.17.09-.42.14-.66.14ZM156.34,93.25c-2.16,26.88-14.57,41-26.58,54.65-11.09,12.67-21.5,24.58-23.47,45.93-3.98,43.2,15.07,69.24,21.8,76.97.71-9.31,3.44-29.4,13.92-31.97,1.61-.39,3.44-.58,5.62-.58,3.35,0,6.99.45,10.5.89,3.53.44,7.17.9,10.38.9,6.58,0,10.27-1.96,11.94-6.35.4-1.13.24-2.64.01-4.21l-.02-.14c-.33-2.88-.73-6.47,2.45-9.5,2.87-2.73,4.29-4.83,4.23-6.23-.03-.63-.39-1.2-1.11-1.75-.43-.33-.67-.84-.67-1.38s.26-1.06.72-1.38c2.23-1.67,4.56-4.44,4.09-5.34-.19-.36-.38-.72-.6-1.08-1.02-1.8-2.15-3.79-1.5-6,.49-1.54,1.71-2.8,3.76-3.84,6.64-3.39,6.76-5.57,6-7.25-.3-.62-1.09-1.7-2.01-2.96l-.39-.53c-4.32-5.8-12.28-16.47-10.81-29.69,2.17-19.17-.98-44.94-28.25-59.16ZM57.05,202.24c3.21,8.51,6.77,14.23,9.83,15.76,2.89,1.45,4.93,2.29,6.57,2.97l.36.15c2.64,1.06,4.39,1.77,6.97,4.01,2.1,1.85,4.48,2.63,7.93,2.63,2.57,0,5.8-.45,9.89-1.37-.07-.13-.13-.26-.18-.39-2.22-.71-11.78-3.82-16.55-6.64-2.32-1.35-4.43-3.23-6.47-5.05l-.3-.27c-2.74-2.46-5.27-4.74-7.89-5.7-2.68-.97-6.81-3.46-10.15-6.1ZM86.62,186.46c2.69-3.44,8.14-10.97,8.65-16.21.65-7.38-.38-14.92-2.97-21.79-.85-2.22-1.58-5.43-2.18-9.56-.23,3-.03,5.62.18,8.38l.04.46c.29,3.9.62,8.33-.18,14.58-.82,6.25-2.28,14.14-4.11,22.22l.59,1.93ZM8.87,124.65c2,2.82,4.78,6.21,8.01,8.8,6.73,5.4,9.63,9.37,12.98,13.96.82,1.14,1.71,2.37,2.72,3.66,2.58,3.38,15.28,9.73,27.31,15-10.45-6.87-20.79-19.31-25.17-26.59-3.79-6.32-8.31-7.47-13.55-8.8-1.07-.27-2.17-.55-3.27-.88-2.87-.85-6.29-3.09-9.04-5.15ZM136.19,108.45c-.54,4.4-1.18,7.76-1.95,10.25-1.46,4.59-2.47,6.74-3.54,9.01l-.08.16c-.7,1.49-1.42,3.02-2.34,5.41-.42,1.12-.7,2.49-.83,4.02,1.37-3.49,3.48-6.6,5.09-8.22,3.04-3.04,4.23-7.35,4.1-14.9-.02-1.9-.22-3.91-.45-5.73ZM106.6,74.78c-.62,1.86-.73,3.44-.32,4.61,1.54,4.35,2.71,13.96-.7,21.24-2.25,4.79,1.46,18.12,5.01,24.15.08-.13.26-.43.26-.43-.28-2.95-.76-10.14.63-15.6.27-1.06.56-2.04.83-2.95l.18-.61c1.25-4.12,2.16-7.1.39-13.85-.96-3.68-2.3-6.68-3.58-9.58l-.06-.13c-1-2.31-1.96-4.5-2.64-6.83ZM76.62,121.75c.57.02,1.12.04,1.66.04,6.19,0,10.81-1.63,13.71-4.85,2.85-3.15,3.35-7.1,3.42-8.93-.11,0-.22,0-.32,0-6.41,0-11.3,1.68-14.52,5-2.54,2.59-3.53,5.66-3.92,7.78-.01.2-.04.85-.04.96ZM57.32,104.24c-.31,1.89-.6,6.07,1.89,9.85,2.47,3.8,7.14,6.25,13.87,7.31.03-.28.08-.57.13-.9.03-2.28-.38-5.66-2.51-8.75-1.3-1.9-3.1-3.5-5.36-4.76-.02,0-.07-.03-.14-.07-2.26-1.22-4.89-2.12-7.88-2.69ZM67.75,104.44c2.46,1.5,4.41,3.31,5.81,5.39.86,1.24,1.53,2.58,2.04,4.06.76-1.29,1.57-2.34,2.5-3.29,1.84-1.9,4.17-3.39,6.92-4.41.3-2.5.48-10.18-7.16-15.93-8.58,4.16-9.91,11.68-10.12,14.18ZM6.97,81.29c.88,3.38,3.93,10.49,13.96,10.49,2.19,0,4.67-.35,7.38-1.05-.12-.38-.2-.73-.27-1.09-1.47-3.37-5.35-9.13-14.61-9.13-1.99,0-4.16.26-6.46.78ZM43.46,69.51c-5.94,2.53-9.81,5.96-11.51,10.22-1.43,3.52-1.1,6.93-.57,9.17.1.25.2.5.28.74,6.35-2.46,10.4-5.86,12.04-10.12,1.52-4.03.56-7.9-.25-10.01ZM170.72,15.35c-1.19,4.87-3.04,11.64-5.44,18.12-2.51,6.83-1.89,9.6-1.03,13.43l.05.23c.51,2.38,1.1,5.08,1.1,9.09,0,9.07-5.72,22.17-8.49,27.97,18.32-7.91,17.77-21.35,17.76-21.49l-.09-.84c-1.12-9.33-1.92-16.01-.12-24.17,1.07-5.05-1.74-15.75-3.74-22.35ZM16.63,77.29c4.46.61,8.14,2.48,10.98,5.58.18-1.52.56-3,1.12-4.44.95-2.33,2.45-4.48,4.46-6.41-.71-2.41-3.56-9.51-12.9-11.78-6.01,6.98-4.62,14.11-3.65,17.04ZM132.01,76.25c-.02.67-.05,1.34-.1,2.04,2.77-4.81,5.83-11.4,6.06-17.38.49-11.72,1.7-16.52,5.09-25.02,1.56-3.87,2.15-8.84,2.37-12.16-.95,1.79-1.94,3.34-2.95,4.61l-.59.75c-3.5,4.34-6.02,7.47-6.63,12.63-.22,1.57-.16,4.34-.06,7.55.16,8.47.38,19.95-3.19,26.99ZM146.78,53.7c.15.43.36.77.64,1.07.65.7,1.66,1.11,3.01,1.22-.46-.98-1.46-2.02-3.65-2.28ZM157.31,52.52c-1.16.42-2,1.02-2.51,1.79-.25.36-.42.77-.52,1.23,1.21-.38,2.07-.95,2.56-1.72.3-.45.43-.91.48-1.31ZM149.98,51.08c.77.34,1.42.76,1.98,1.27.36-.56.87-1.08,1.6-1.63-.33-1.29-1.04-2.3-2.12-2.99-.91.91-1.42,2.06-1.46,3.34ZM96.48,26.78c1.23,2.69,4.7,8.24,12.37,8.24,3.03,0,6.48-.87,10.27-2.58-.15-.29-.3-.62-.45-.99-2.03-3.09-5.89-6.85-12.55-6.85-2.93,0-6.17.73-9.63,2.17ZM130.42,8.96c-5.39,3.5-8.62,7.53-9.58,11.99-.82,3.76.1,7.07,1.02,9.18.14.21.27.44.39.66,5.82-3.49,9.23-7.52,10.15-11.99.81-4.2-.82-7.88-1.98-9.85ZM106.12,21.16c4.14,0,7.83,1.23,10.98,3.65-.09-1.49.03-3.02.36-4.55.54-2.45,1.64-4.84,3.29-7.08-1.12-2.25-5.17-8.76-14.76-9.39-4.81,8.11-1.84,15.18-.64,17.42.04,0,.09,0,.13-.01.21-.02.42-.04.64-.04Z"/>
      <path class="cls-1" d="M105.05.6s.04,0,.06,0c10.81.24,16.01,6.89,17.96,10.29,1.92-1.97,4.29-3.81,7.15-5.49.23-.13.48-.2.73-.2.41,0,.81.18,1.09.52.19.24,4.9,6.12,3.44,13.66-1.1,5.64-5.35,10.55-12.57,14.64,4.93,12.34,7.7,23.09,8.54,32.89.81-5.68.68-12.25.58-17.57-.1-3.47-.13-6.2.06-8,.75-6.03,3.8-9.83,7.31-14.22l.61-.75c3.57-4.48,5.88-11.8,5.91-11.88.18-.61.77-.99,1.37-.99.05,0,.1,0,.15,0,.68.09,1.24.64,1.27,1.33,0,.56.68,13.71-2.73,22.21-3.25,8.14-4.42,12.75-4.87,23.98-.46,10.94-9,22.99-10.43,24.96-2.27,13.15-8.05,25.27-16.34,38.58-12.51,20.1-7.77,39.47-5.23,46.72,4.22-8.91,10.07-16.05,15.98-22.87-.49-2.46-1.92-10.68.23-16.28.97-2.57,1.75-4.19,2.5-5.76,1.04-2.18,1.98-4.23,3.38-8.64,2.28-7.33,2.77-21.79,2.77-21.92.03-.72.58-1.29,1.26-1.38.06,0,.12-.01.18-.01.64,0,1.2.43,1.38,1.04.1.42,2.83,10.25,2.99,18.64.13,8.48-1.3,13.45-5.03,17.17-2.64,2.65-5.46,8.24-5.52,12.42,15.33-17.56,30.21-36.77,21.83-84.57-2.6-.02-4.61-.78-5.97-2.27-1.95-2.14-1.76-4.95-1.72-5.07.06-.7.61-1.25,1.33-1.29.33-.02.65-.03.97-.03.42,0,.82.02,1.21.06.13-1.7.81-4.13,3.47-6.02.24-.17.53-.26.83-.26.19,0,.38.04.57.11,3.02,1.27,4.22,3.48,4.71,5.11.68-.22,1.36-.4,2.14-.52.08-.01.16-.02.24-.02.62,0,1.18.39,1.36.99.03.12.94,2.98-.71,5.57-1.07,1.7-2.99,2.8-5.56,3.34,1.21,7,1.95,13.41,2.28,19.3,2.53-5.91,6.04-15.32,6.04-21.92,0-3.8-.55-6.37-1.07-8.64-.91-4.05-1.65-7.54,1.17-15.2,4.19-11.31,6.69-23.67,6.69-23.79.13-.63.65-1.1,1.3-1.15.03,0,.06,0,.09,0,.61,0,1.15.37,1.37.95.29.87,7.57,21.49,5.75,29.97-1.69,7.68-.91,14.17.16,23.14l.13.97c.03.78.48,16.79-21.5,25.35-.03.62-.03,1.24-.06,1.86,23.91,11.74,34.78,33.53,31.47,63.08-1.36,12.03,5.85,21.69,10.16,27.46,1.34,1.76,2.28,3.04,2.73,4.05,2.86,6.16-4.61,9.95-7.41,11.38-1.23.63-1.98,1.28-2.18,1.94-.26.92.46,2.18,1.2,3.53.23.4.46.8.68,1.21,1.56,2.99-1.72,6.48-3.77,8.27.68.85,1.04,1.81,1.1,2.85.1,2.44-1.49,5.12-5.19,8.66-2.11,1.98-1.82,4.29-1.5,6.97.23,1.88.49,3.83-.19,5.69-2.56,6.7-8.43,8.38-15.05,8.38-3.46,0-7.12-.46-10.61-.9-3.46-.43-6.98-.87-10.13-.87-1.76,0-3.4.14-4.84.49-9.1,2.22-11.57,24.6-11.73,33.05-.03.55-.36,1.06-.88,1.27-.16.08-.36.12-.55.12-.36,0-.69-.12-.95-.36-.19-.15-9.19-8.53-16.59-24.85-.03-.05-.1-.06-.1-.12-.16-.23-5.23-8.43-11.7-21.75-4.68,1.11-8.44,1.7-11.53,1.7-4.35,0-7.41-1.12-10.04-3.43-2.15-1.87-3.44-2.39-6.04-3.47-1.79-.71-3.96-1.6-7.18-3.22-6.79-3.39-11.92-18.29-13.9-24.94-.07-.15-.1-.3-.13-.45-.2-.75.19-1.76.94-1.96.09-.02.17-.03.26-.03.61,0,1.23.53,1.49,1.12v.02s.06.1.06.15c0,.02,0,.04.03.06,1.01,2.5,9,8.78,14.03,10.6,3.22,1.17,6.11,3.78,8.93,6.31,2.02,1.82,4.12,3.69,6.24,4.95,3.41,2.02,9.81,4.3,13.57,5.57-2.47-5.39-5-11.4-7.5-17.89-.55-.62-11.34-12.71-24.04-32.48-4.19-1.71-30.66-12.71-35.4-18.86-.98-1.31-1.89-2.53-2.76-3.73-3.22-4.41-6.01-8.23-12.41-13.36-8.48-6.77-13.96-18.3-14.19-18.79-.26-.62-.1-1.36.49-1.76.24-.18.53-.26.82-.26.36,0,.73.14,1,.41.1.09,9.78,9.5,15.79,11.28,1.04.31,2.08.57,3.09.83,5.46,1.38,11.07,2.81,15.53,10.25,3.9,6.5,12.67,17.16,21.86,23.94-10.98-18.56-22.34-42.07-29.2-68.3-3.32.93-6.37,1.42-9.16,1.42-15.56,0-17.35-14.6-17.38-14.75-.06-.71.36-1.36,1.04-1.54,3.15-.84,6.07-1.27,8.77-1.27-1.04-3.8-2.11-12.13,5.26-19.98.26-.29.63-.46,1.03-.46.09,0,.18,0,.27.03,10.62,2.09,14.62,9.53,15.95,13.21,2.24-1.61,4.87-3.02,7.99-4.2.16-.06.33-.09.5-.09.5,0,.99.27,1.25.73.13.28,3.8,6.87,1.04,14.06-1.95,5.12-6.65,9.11-13.87,11.91,12.86,49.53,42.09,89.31,53.85,103.88-.65-1.84-1.27-3.72-1.88-5.62-.16-.23-.26-.48-.26-.75-.49-1.52-.98-3.05-1.46-4.6-.13-.22-.19-.47-.19-.73-5.58-18.49-9.71-39.26-9.58-60.16-7.99-1.14-13.61-4.08-16.7-8.79-4.19-6.43-2.05-13.65-1.95-13.95.18-.61.75-1,1.37-1,.06,0,.13,0,.19.01,3.22.48,6.07,1.28,8.58,2.35.52-3.9,2.89-11.97,12.77-16.23.18-.08.38-.12.57-.12.28,0,.56.09.79.25,8.9,6.14,9.58,14.54,9.36,18.46,2.12-.47,4.44-.71,6.99-.71.65,0,1.32.02,2,.05.68.03,1.26.58,1.33,1.27.03.3.71,7.41-4.19,12.85-3.54,3.93-9,5.91-16.17,5.91-.68,0-1.4-.06-2.11-.09-.06,18.63,3.25,37.14,7.99,53.99.91-4.39,2.14-10.81,2.96-16.93.78-6.04.45-10.17.16-14.16-.26-3.09-.49-6.01-.16-9.52.71-7.92,2.21-12.26,2.27-12.45.2-.57.74-.96,1.31-.96.07,0,.14,0,.22.02.68.1,1.2.66,1.23,1.34,0,.15.68,14.58,3.18,21.17,2.76,7.36,3.87,15.39,3.15,23.18-.65,7.19-8.6,17.12-10.85,19.8,6.07,18.47,13.41,34.2,18.87,44.79-3.09-11.49-4.74-25.36-3.25-41.6.65-7.02,2.21-13.1,4.35-18.54-1.59-3.63-9.52-24.24,1.56-46.78-4.16-5.57-9.51-22.14-6.37-28.91,2.86-6.07,2.08-14.68.59-18.86-1.79-5.15,2.76-11.7,2.95-11.98.27-.39.72-.6,1.18-.6.14,0,.28.02.41.06.58.17.97.71,1.01,1.32.13,3.96,1.59,7.32,3.31,11.22,1.26,2.87,2.73,6.14,3.77,10.05,1.98,7.61.91,11.12-.42,15.57-.32,1.05-.65,2.17-.97,3.42-.85,3.33-.91,7.49-.81,10.6,15.76-26.21,21.21-48.3,6.63-84.81-4.16,1.88-8.02,2.87-11.5,2.87-12.31,0-15.89-11.79-15.92-11.91-.19-.68.13-1.4.75-1.69,2.96-1.36,5.78-2.24,8.45-2.7-1.65-3.55-4.16-11.59,1.75-20.63.25-.39.73-.63,1.17-.63M105.18,21.53c.29-.02.62-.06.94-.06,5.03,0,8.7,1.84,11.34,4.02-.16-1.59-.1-3.32.29-5.16.55-2.52,1.69-4.89,3.35-7.11-1.04-2.18-5.23-9.15-15.27-9.73-5.16,8.53-1.85,15.88-.65,18.04M122.13,31.21c6.07-3.58,9.61-7.73,10.55-12.34.88-4.58-1.07-8.53-2.17-10.33-5.59,3.56-8.97,7.71-9.97,12.35-.84,3.86.13,7.28,1.04,9.36.23.35.39.66.55.96M156.36,84.76c18.97-7.85,18.65-21.46,18.61-22.06l-.1-.85c-1.11-9.25-1.92-15.93-.13-24.08,1.13-5.36-2.02-16.95-4.06-23.55-1.13,4.75-3.09,12.15-5.68,19.15-2.53,6.88-1.92,9.7-1.04,13.6.52,2.41,1.14,5.15,1.14,9.26,0,10.29-7.6,26.07-8.74,28.43v.11M131.52,79.55c2.83-4.71,6.5-12.03,6.76-18.64.49-11.65,1.69-16.45,5.06-24.92,1.63-4.04,2.28-9.38,2.47-13.67-.97,1.99-2.17,4.08-3.57,5.83l-.59.75c-3.54,4.39-6.07,7.56-6.69,12.78-.23,1.59-.16,4.38-.06,7.59.16,8.45.39,19.92-3.19,26.9-.03,1.14-.1,2.26-.2,3.38M108.85,35.31c3.18,0,6.75-.92,10.68-2.73-.19-.35-.39-.76-.58-1.24-1.82-2.78-5.68-7.03-12.83-7.03-3.05,0-6.43.78-10.03,2.31,1.13,2.61,4.61,8.7,12.77,8.7M152.01,52.85c.06-.1.1-.19.16-.28.42-.67,1.04-1.23,1.72-1.72-.19-.88-.71-2.44-2.5-3.48-1.53,1.4-1.73,3.02-1.73,3.92.88.37,1.63.84,2.28,1.48,0,.03.03.06.06.1M153.9,55.96c1.53-.39,2.6-1.05,3.19-1.97.42-.63.55-1.32.55-1.89-1.43.44-2.47,1.12-3.09,2.05-.42.61-.58,1.27-.65,1.81M150.88,56.31c-.39-1.2-1.5-2.74-4.51-2.95.13.53.36,1.11.84,1.62.78.84,2.02,1.28,3.67,1.33M27.84,83.59c.13-1.59.49-3.3,1.17-5.04.97-2.39,2.5-4.52,4.51-6.42-.65-2.33-3.57-9.91-13.35-12.2-6.56,7.5-4.58,15.28-3.77,17.64,5.49.7,9.09,3.26,11.43,6.03M31.48,90.04c6.62-2.5,10.81-6,12.51-10.4,1.65-4.37.42-8.57-.36-10.52-6.17,2.57-10.2,6.1-11.96,10.5-1.49,3.66-1.1,7.16-.58,9.35.16.39.29.75.39,1.06M110.6,125.37c.16-.32.36-.64.55-.97-.19-1.98-.87-9.77.61-15.6.33-1.3.69-2.46,1.01-3.55,1.27-4.17,2.18-7.19.39-14.01-.97-3.71-2.31-6.72-3.61-9.64-1.13-2.6-2.24-5.12-2.92-7.82-.74,1.88-1.23,4.02-.65,5.7,1.53,4.32,2.66,13.85-.68,21.01-2.34,4.96,1.59,18.95,5.29,24.87M20.92,92.07c2.34,0,4.93-.39,7.76-1.14-.13-.4-.26-.84-.36-1.36-1.52-3.52-5.42-9.37-14.9-9.37-2.12,0-4.38.28-6.82.85.74,3.1,3.7,11.01,14.32,11.01M75.52,114.64c.72-1.29,1.59-2.6,2.8-3.83,1.88-1.95,4.22-3.4,6.98-4.4.32-2.41.68-10.52-7.4-16.5-9,4.27-10.3,12.21-10.46,14.69,2.4,1.44,4.42,3.24,5.88,5.4,1.07,1.54,1.76,3.13,2.21,4.64M128.34,271.52c.58-8.41,3.05-29.79,13.74-32.41,1.7-.42,3.57-.57,5.55-.57,3.32,0,6.92.45,10.46.89,3.63.46,7.2.9,10.42.9,5.67,0,10.25-1.39,12.22-6.55.42-1.2.26-2.74.03-4.36-.32-2.85-.78-6.42,2.34-9.38,2.99-2.85,4.38-4.96,4.32-6.46-.03-.71-.42-1.36-1.23-1.97-.35-.28-.55-.7-.55-1.14s.2-.86.59-1.13c2.11-1.58,4.8-4.53,4.19-5.73-.19-.36-.39-.74-.61-1.1-.97-1.72-2.08-3.66-1.46-5.76.45-1.44,1.63-2.65,3.61-3.65,6.89-3.52,6.95-5.84,6.14-7.64-.36-.74-1.33-2.04-2.43-3.54-4.26-5.71-12.21-16.33-10.76-29.48,2.21-19.5-1.1-45.46-28.81-59.67-2.05,27.01-14.42,41.14-26.54,54.92-11.08,12.66-21.56,24.61-23.55,46.1-4.06,44.09,15.59,70.17,22.35,77.73M73.35,121.75c.03-.37.1-.77.16-1.23.03-2.27-.36-5.73-2.57-8.93-1.33-1.95-3.15-3.56-5.46-4.85-.06-.02-.13-.06-.23-.11-2.28-1.23-5-2.15-8.19-2.73-.39,2.08-.68,6.48,1.89,10.37,2.57,3.94,7.4,6.45,14.39,7.49M127.07,139.33c1.2-4.1,3.7-8.06,5.68-10.05,3.12-3.11,4.32-7.49,4.19-15.11-.03-2.65-.39-5.5-.78-8.12-.45,4.3-1.13,9.1-2.21,12.56-1.46,4.59-2.47,6.73-3.54,9-.71,1.52-1.46,3.09-2.41,5.56-.68,1.81-.94,4.01-.94,6.17M78.28,122.09c6.37,0,10.98-1.68,13.94-4.95,2.96-3.26,3.48-7.4,3.51-9.43-.21,0-.42,0-.63,0-6.54,0-11.46,1.72-14.74,5.1-2.6,2.65-3.61,5.78-4,7.93-.03.5-.03.92-.07,1.3.68.03,1.34.05,1.98.05M62.82,167.66c-.03-.08-.1-.16-.13-.24-11.31-6.35-22.96-20.21-27.71-28.09-3.87-6.44-8.48-7.6-13.77-8.95-1.07-.27-2.14-.54-3.22-.86-3.22-.96-7.18-3.67-10.46-6.28,2.31,3.47,5.46,7.49,9.16,10.44,6.69,5.37,9.58,9.32,12.93,13.9.85,1.18,1.73,2.39,2.73,3.67,3.18,4.17,20.46,12.13,30.47,16.4M86.5,187.09c2.89-3.64,8.54-11.39,9.06-16.82.65-7.37-.36-14.96-2.99-21.92-1.2-3.15-1.98-7.79-2.5-12-.1.68-.16,1.39-.23,2.14-.29,3.26-.06,6.07.16,9.04.29,3.94.65,8.4-.16,14.75-1.26,9.64-3.6,19.96-4.13,22.27.26.85.52,1.71.78,2.56M88.72,228.06c2.59,0,5.91-.45,10.33-1.46-.13-.27-.3-.57-.39-.84-2.34-.74-11.89-3.86-16.63-6.66-2.41-1.4-4.58-3.38-6.73-5.29-2.73-2.45-5.29-4.77-7.99-5.76-2.89-1.05-7.44-3.85-10.91-6.74,2.83,7.77,6.59,15.07,10.36,16.95,3.12,1.57,5.26,2.43,6.95,3.13,2.76,1.11,4.38,1.79,6.89,3.96,1.89,1.66,4.15,2.71,8.13,2.71M105.05,0c-.66,0-1.33.37-1.68.91-5.61,8.56-3.89,16.28-2.1,20.5-2.57.52-5.2,1.39-7.84,2.61-.9.42-1.35,1.43-1.07,2.4.03.12,3.82,12.35,16.5,12.35,3.33,0,7.09-.9,11.17-2.67,14.08,35.62,8.7,57.3-5.73,81.88,0-3.37.28-6.16.83-8.32.27-1.06.57-2.11.96-3.39,1.37-4.57,2.45-8.15.43-15.9-1.01-3.82-2.42-7.02-3.66-9.83l-.14-.31c-1.61-3.65-3.13-7.09-3.26-11-.05-.89-.63-1.64-1.44-1.88-.19-.05-.38-.08-.58-.08-.67,0-1.29.32-1.67.86-.2.28-4.93,7.05-3.03,12.52,1.45,4.07,2.23,12.47-.56,18.41-3.22,6.93,2.05,23.33,6.21,29.22-10.79,22.29-3.39,42.34-1.51,46.73-2.28,5.86-3.69,11.9-4.3,18.47-1.18,12.77-.49,25.11,2.03,36.73-4.93-9.98-11.15-23.88-16.39-39.74,2.63-3.18,10.13-12.79,10.77-19.88.72-7.86-.38-15.97-3.19-23.45-2.48-6.55-3.14-20.83-3.14-20.97-.05-.99-.79-1.79-1.75-1.92-.09-.02-.19-.02-.3-.02-.83,0-1.59.55-1.88,1.36-.06.18-1.58,4.53-2.31,12.6-.34,3.66-.08,6.69.16,9.62l.02.23c.28,3.91.58,7.94-.18,13.81-.67,5.02-1.63,10.3-2.45,14.43-4.84-17.88-7.29-34.95-7.3-50.78,0,0,0,0,0,0,.5.03,1.01.06,1.51.06,7.38,0,12.97-2.06,16.62-6.11,5.07-5.62,4.38-13,4.34-13.31-.1-.98-.92-1.76-1.9-1.81-.69-.03-1.37-.05-2.03-.05-2.26,0-4.4.19-6.36.56.1-4.59-1.18-12.37-9.65-18.21-.32-.23-.71-.36-1.13-.36-.28,0-.56.06-.82.18-9.73,4.2-12.31,12.04-12.99,15.93-2.41-.96-5.1-1.66-8.01-2.1-.1-.01-.19-.02-.28-.02-.9,0-1.7.59-1.94,1.44-.02.05-2.43,7.6,2.02,14.44,3.1,4.74,8.69,7.77,16.6,8.98-.05,18.39,3.17,38.49,9.58,59.74.01.31.1.61.24.87.47,1.5.95,2.99,1.42,4.47.02.32.13.63.31.91.24.74.49,1.5.74,2.27-12.89-16.42-39.29-54.09-51.45-100.44,7.15-2.88,11.76-6.93,13.71-12.06,2.55-6.62-.15-12.75-1.03-14.48l-.03-.05v-.02s-.02-.02-.02-.02c-.37-.63-1.05-1.02-1.77-1.02-.25,0-.48.04-.71.13-2.77,1.05-5.29,2.33-7.49,3.83-1.5-3.67-5.71-10.83-16.12-12.87-.13-.03-.26-.04-.39-.04-.56,0-1.09.24-1.47.65-7.01,7.47-6.64,15.34-5.59,19.8-2.5.07-5.24.5-8.15,1.28-.95.25-1.58,1.16-1.48,2.17v.04s.01.03.01.03c.23,1.56,2.7,15.22,17.97,15.22,2.62,0,5.56-.43,8.73-1.28,5.68,21.49,14.93,43.4,27.53,65.17-7.92-6.47-15.49-15.59-19.25-21.86-4.59-7.66-10.33-9.11-15.89-10.52l-.42-.11c-.86-.22-1.76-.45-2.64-.71-5.35-1.59-13.84-9.51-15.48-11.08l-.08-.07c-.35-.35-.86-.56-1.4-.56-.42,0-.83.13-1.17.38-.78.53-1.07,1.58-.69,2.48.06.14,5.64,12.05,14.37,19.03,6.36,5.1,9.11,8.87,12.3,13.24.88,1.2,1.79,2.42,2.77,3.73,4.88,6.32,31.62,17.4,35.48,18.98,12.31,19.14,22.85,31.12,23.92,32.31,2.22,5.77,4.54,11.33,6.9,16.56-4.18-1.44-9.27-3.36-12.15-5.07-1.99-1.18-3.96-2.91-6.15-4.88l-.13-.12c-2.81-2.52-5.72-5.12-9-6.31-4.83-1.75-12.75-7.96-13.68-10.27v-.03c-.03-.08-.07-.15-.1-.21h0c-.32-.74-1.12-1.48-2.04-1.48-.14,0-.29.02-.42.06-1.11.3-1.63,1.67-1.36,2.69.02.12.06.3.15.5,1.92,6.45,7.13,21.74,14.2,25.27,3.15,1.58,5.29,2.47,7.22,3.24l.07.03c2.5,1.03,3.75,1.55,5.81,3.34,2.82,2.47,6.04,3.57,10.43,3.57,2.92,0,6.49-.51,11.2-1.6,6.17,12.68,10.88,20.36,11.47,21.31.03.08.08.15.15.23,7.3,16.04,16,24.31,16.68,24.93h0c.37.35.84.53,1.36.53.28,0,.57-.06.8-.18.7-.29,1.18-.99,1.23-1.77.15-7.77,2.53-30.37,11.27-32.5,1.3-.32,2.84-.47,4.7-.47,3.12,0,6.64.44,10.06.87,3.53.44,7.18.9,10.69.9,5.26,0,12.6-.91,15.61-8.77.72-1.96.48-3.94.24-5.85l-.02-.12v-.06c-.32-2.59-.56-4.64,1.31-6.4,3.83-3.67,5.49-6.49,5.38-9.13-.06-1-.36-1.92-.9-2.74,3.5-3.21,4.74-6.26,3.5-8.64l-.69-1.23-.04-.08c-.63-1.15-1.29-2.33-1.1-2.99.08-.26.43-.83,1.87-1.57,2.97-1.52,10.77-5.51,7.68-12.16-.48-1.07-1.46-2.4-2.8-4.15-4.26-5.69-11.38-15.23-10.05-27.03,3.32-29.66-7.55-51.61-31.45-63.51,0-.2.01-.4.02-.6,0-.16,0-.32.01-.48,21.93-8.72,21.55-25.09,21.52-25.79v-.03s0-.03,0-.03l-.13-.97v-.06c-1.07-8.88-1.84-15.3-.17-22.87,1.65-7.72-3.95-24.99-5.7-30.1l-.06-.19c-.31-.84-1.07-1.36-1.94-1.36-.04,0-.09,0-.13,0-.92.07-1.66.72-1.85,1.62v.06s-.01.01-.01.01c-.13.66-2.56,12.59-6.65,23.63-2.91,7.89-2.07,11.61-1.19,15.54.45,1.95,1.06,4.62,1.06,8.51,0,5.78-2.8,13.86-5.01,19.32-.38-5.09-1.06-10.54-2.02-16.24,2.5-.62,4.31-1.79,5.38-3.47,1.61-2.52,1.01-5.25.79-6.03-.25-.87-1.05-1.45-1.94-1.45-.11,0-.22,0-.33.03-.56.09-1.1.21-1.67.37-.63-1.68-1.98-3.71-4.86-4.92-.26-.11-.53-.16-.8-.16-.43,0-.83.13-1.18.38-2.53,1.8-3.4,4.09-3.66,5.87-.22-.01-.45-.02-.68-.02-.32,0-.66.01-1,.03-1,.06-1.8.83-1.89,1.83h0c-.08.64-.05,3.41,1.88,5.53,1.39,1.51,3.37,2.33,5.91,2.45,3.67,21.23,2.98,38.52-2.08,52.84-4.26,12.05-11.11,20.83-18.45,29.32.67-3.72,3-8,5.16-10.18,3.83-3.82,5.34-8.92,5.21-17.61-.13-6.8-1.9-14.53-2.94-18.52-.03-.13-.06-.21-.06-.24-.26-.9-1.06-1.51-1.96-1.51-.08,0-.17,0-.26.02-1,.13-1.75.95-1.79,1.95,0,.16-.48,14.52-2.74,21.77-1.35,4.26-2.27,6.31-3.35,8.56l-.03.06c-.75,1.57-1.52,3.18-2.49,5.74-2.05,5.36-.95,12.99-.31,16.32-5.42,6.25-11.01,13.04-15.23,21.45-2.57-8.13-5.98-26.16,5.63-44.82,9.39-15.08,14.3-26.66,16.39-38.66,2.45-3.41,10.03-14.73,10.46-25.17.45-11.11,1.6-15.68,4.83-23.78,2.92-7.28,2.91-17.94,2.78-22.18,0-.13,0-.21,0-.25-.04-1-.8-1.8-1.79-1.93-.08,0-.16-.01-.23-.01-.9,0-1.7.58-1.95,1.42-.42,1.27-2.61,7.67-5.8,11.68l-.61.74-.04.05c-3.56,4.45-6.63,8.3-7.4,14.47-.19,1.79-.17,4.43-.07,8.09v.19c.07,3.54.14,7.66-.06,11.69-1.27-8.25-3.81-17.13-7.71-26.95,7.13-4.15,11.3-9.12,12.4-14.79,1.47-7.57-3.04-13.49-3.56-14.15-.4-.48-.96-.75-1.56-.75-.36,0-.71.1-1.03.28-2.58,1.52-4.84,3.21-6.73,5.04C121.08,6.56,115.7.24,105.13,0c-.01,0-.04,0-.08,0h0ZM105.52,20.9c-1.22-2.36-3.85-9.08.63-16.79,9.08.67,13.04,6.72,14.24,9.05-1.61,2.24-2.7,4.61-3.23,7.05-.29,1.34-.42,2.68-.39,4-3.09-2.22-6.67-3.34-10.66-3.34-.2,0-.4.02-.6.03h0ZM122.11,29.97c-.9-2.07-1.78-5.3-.98-8.95.93-4.31,4.02-8.22,9.19-11.63,1.12,1.99,2.54,5.45,1.78,9.37-.88,4.3-4.16,8.21-9.74,11.62-.07-.13-.16-.27-.25-.41h0ZM157.53,83.6c2.54-5.43,8.17-18.48,8.17-27.38,0-4.05-.59-6.76-1.1-9.16l-.05-.22c-.85-3.79-1.47-6.52,1.02-13.27,2.24-6.03,3.99-12.31,5.18-17.08,1.95,6.6,4.42,16.42,3.42,21.15-1.8,8.21-1,14.91.11,24.18v.1s.11.85.11.85c0,0,.17,3.5-2.12,7.97-2.76,5.37-7.71,9.7-14.73,12.87h0ZM96.89,26.93c3.32-1.35,6.42-2.03,9.23-2.03,6.5,0,10.27,3.64,12.3,6.71.1.24.2.46.3.67-3.64,1.61-6.95,2.42-9.86,2.42-7.23,0-10.65-5.06-11.96-7.78h0ZM132.31,76.33c3.57-7.11,3.35-18.59,3.19-26.99v-.07c-.1-3.2-.16-5.96.05-7.5.6-5.08,3.1-8.19,6.56-12.49l.59-.75c.79-.98,1.56-2.14,2.31-3.44-.28,3.19-.9,7.36-2.24,10.69-3.4,8.53-4.61,13.36-5.11,25.12-.21,5.48-2.82,11.48-5.39,16.13.01-.23.02-.47.03-.7h0ZM150.29,50.9c.08-1.06.48-1.99,1.19-2.77.85.6,1.43,1.44,1.74,2.48-.55.43-.98.86-1.31,1.3-.48-.39-1.01-.73-1.62-1.01h0ZM154.73,55.06c.08-.2.18-.39.31-.57.4-.61,1.02-1.1,1.85-1.48-.07.21-.17.43-.31.64-.38.59-1,1.06-1.85,1.41h0ZM149.87,55.61c-.98-.16-1.72-.51-2.23-1.05-.14-.14-.26-.3-.36-.48,1.34.27,2.13.88,2.59,1.53h0ZM16.86,77.02c-.94-2.96-2.13-9.75,3.53-16.43,8.83,2.22,11.68,8.85,12.46,11.35-1.97,1.92-3.45,4.07-4.39,6.38-.5,1.26-.85,2.57-1.05,3.89-2.78-2.84-6.32-4.58-10.54-5.19h0ZM31.66,88.79c-.52-2.2-.83-5.52.56-8.94,1.64-4.11,5.36-7.45,11.06-9.93.76,2.12,1.56,5.75.14,9.51-1.58,4.11-5.48,7.42-11.58,9.83-.06-.15-.12-.31-.18-.46h0ZM110.52,124.04c-3.4-6.22-6.75-18.87-4.67-23.28,3.44-7.37,2.26-17.08.71-21.47-.31-.9-.29-2.08.05-3.47.65,2,1.48,3.91,2.35,5.91l.05.12c1.29,2.9,2.62,5.89,3.58,9.55,1.75,6.68.85,9.62-.38,13.69l-.18.61c-.28.93-.56,1.89-.84,2.97-1.36,5.32-.96,12.24-.67,15.38h0ZM7.34,81.51c2.16-.47,4.2-.7,6.08-.7,8.59,0,12.53,4.85,14.33,8.95.06.27.12.53.18.75-2.57.64-4.92.96-7.01.96-9.53,0-12.62-6.55-13.59-9.96h0ZM68.06,104.28c.25-2.61,1.68-9.67,9.77-13.67,7.2,5.52,7.2,12.75,6.92,15.37-2.72,1.04-5.03,2.52-6.86,4.42-.81.83-1.53,1.74-2.21,2.81-.49-1.28-1.1-2.45-1.87-3.55-1.39-2.06-3.32-3.87-5.74-5.38h0ZM127.85,270.05c-7.08-8.32-25.14-34.08-21.26-76.2,1.96-21.25,12.35-33.12,23.34-45.69l.06-.07c11.97-13.61,24.34-27.68,26.61-54.37,26.74,14.18,29.84,39.67,27.69,58.65-1.48,13.34,6.52,24.08,10.82,29.85l.05.06.37.5c.92,1.25,1.72,2.34,2.01,2.94.45,1.01,1.41,3.13-5.87,6.85-2.12,1.08-3.4,2.39-3.9,4.01-.69,2.34.52,4.49,1.5,6.21.24.39.43.75.62,1.11.32.61-1.57,3.13-4.02,4.97-.52.35-.83.95-.83,1.61s.29,1.22.78,1.61c.65.5.98.99,1,1.53.06,1.32-1.33,3.34-4.13,6-3.29,3.12-2.85,6.95-2.54,9.74l.02.14c.22,1.55.38,3.01,0,4.09-1.62,4.25-5.22,6.15-11.66,6.15-3.19,0-6.82-.46-10.34-.9-3.52-.44-7.16-.9-10.54-.9-2.2,0-4.06.19-5.69.59-4.83,1.18-8.56,6.04-11.09,14.44-1.77,5.88-2.6,12.31-3,17.07h0ZM72.83,121.06c-6.48-1.07-10.98-3.46-13.36-7.13-2.31-3.5-2.18-7.36-1.9-9.34,2.84.57,5.33,1.43,7.41,2.56l.08.04c.06.03.11.06.17.08,2.2,1.23,3.96,2.79,5.23,4.65,2.08,3.01,2.49,6.3,2.46,8.55-.03.2-.06.4-.09.59h0ZM76.96,120.81c.38-2.08,1.35-5.07,3.83-7.59,3.16-3.26,7.98-4.92,14.31-4.92h0c-.11,1.9-.69,5.52-3.33,8.43-2.85,3.15-7.39,4.75-13.49,4.75-.44,0-.89,0-1.35-.02,0-.02,0-.04,0-.06,0-.19.02-.38.03-.59h0ZM128.06,135.17c.14-.65.31-1.25.51-1.79.9-2.36,1.62-3.88,2.32-5.36l.07-.15c1.08-2.3,2.1-4.46,3.57-9.08.63-2.02,1.17-4.61,1.64-7.85.1,1.08.16,2.18.18,3.24.13,7.46-1.04,11.71-4.01,14.68-1.31,1.32-2.95,3.62-4.27,6.31h0ZM57.21,164.54c-11.09-4.97-22.03-10.58-24.37-13.65-1.02-1.3-1.9-2.52-2.72-3.66-3.37-4.61-6.27-8.59-13.04-14.02-2.63-2.1-4.96-4.75-6.81-7.18,2.44,1.71,5.18,3.35,7.56,4.06,1.12.33,2.22.61,3.24.87,5.21,1.33,9.68,2.46,13.4,8.68,4.04,6.71,13.14,17.8,22.73,24.91h0ZM86.34,184.51c1.83-8.06,3.28-15.93,4.1-22.17.81-6.28.48-10.73.18-14.65l-.02-.22-.02-.25c-.13-1.77-.27-3.49-.28-5.28.5,2.73,1.07,4.95,1.71,6.61,2.58,6.83,3.6,14.32,2.95,21.66-.47,4.94-5.46,12.01-8.23,15.6l-.02-.06-.38-1.25h0ZM88.72,227.46c-3.42,0-5.66-.74-7.73-2.56-2.62-2.28-4.39-2.99-7.06-4.07l-.36-.15c-1.63-.67-3.67-1.51-6.54-2.96-2.88-1.44-6.23-6.71-9.31-14.6,3.21,2.42,6.86,4.58,9.39,5.49,2.56.94,5.07,3.2,7.73,5.58l.06.06.29.26c2.06,1.83,4.19,3.73,6.54,5.1,4.63,2.74,13.73,5.75,16.35,6.59-3.84.84-6.91,1.25-9.36,1.25h0Z"/>
    </g>
    <g>
      <path class="cls-1" d="M373.83,178.6c1.33,0,2.52-.22,3.55-.67,1.03-.44,1.92-.96,2.66-1.55.74-.59,1.41-1.26,2-2h.22c-.44,2.52-1.41,4.74-2.89,6.66-1.33,1.63-3.22,3.15-5.66,4.55-2.44,1.41-5.81,2.11-10.1,2.11-3.85,0-7.73-1.33-11.65-4-3.92-2.66-7.7-6.14-11.32-10.43-3.63-4.29-7.14-9.17-10.54-14.65-3.4-5.47-6.59-11.02-9.54-16.65-2.96-5.62-5.66-11.06-8.1-16.31-2.44-5.25-4.63-9.8-6.55-13.65l-10.65,16.2v56.82h-17.54V38.54c0-2.07-.78-3.92-2.33-5.55-1.55-1.63-3.96-2.59-7.21-2.89v-.44h27.08v93l40.4-63.7c2.52-4.14,4.51-7.84,5.99-11.1,1.48-3.25,2.14-6.03,2-8.32-.15-2.29-1.15-4.22-3-5.77-1.85-1.55-4.77-2.77-8.77-3.66v-.44h27.52l-42.84,65.92c2.07,4,4.55,8.81,7.44,14.43,2.89,5.63,5.99,11.54,9.32,17.76,3.33,6.21,6.84,12.32,10.54,18.31,3.7,5.99,7.36,11.43,10.99,16.31,3.62,4.88,7.06,8.81,10.32,11.76,3.25,2.96,6.14,4.44,8.66,4.44Z"/>
      <path class="cls-1" d="M428.88,90.48c9.17,0,16.79,2.41,22.86,7.21,6.07,4.81,10.62,10.8,13.65,17.98,3.03,7.18,4.51,14.95,4.44,23.31-.08,8.36-1.59,16.13-4.55,23.31-2.96,7.18-7.51,13.17-13.65,17.98-6.14,4.81-13.73,7.21-22.75,7.21s-16.8-2.41-22.86-7.21c-6.07-4.81-10.62-10.8-13.65-17.98-3.04-7.18-4.55-14.94-4.55-23.31s1.52-16.13,4.55-23.31c3.03-7.18,7.58-13.17,13.65-17.98,6.06-4.81,13.69-7.21,22.86-7.21ZM428.88,183.92c5.03,0,9.21-2.22,12.54-6.66s5.81-9.99,7.44-16.65c1.63-6.66,2.44-13.87,2.44-21.64s-.81-14.98-2.44-21.64c-1.63-6.66-4.11-12.21-7.44-16.65s-7.51-6.66-12.54-6.66-9.21,2.22-12.54,6.66-5.85,9.99-7.55,16.65c-1.7,6.66-2.55,13.87-2.55,21.64s.85,14.98,2.55,21.64c1.7,6.66,4.22,12.21,7.55,16.65s7.51,6.66,12.54,6.66Z"/>
      <path class="cls-1" d="M498.35,114.23c0,3.11,1.22,5.74,3.66,7.88,2.44,2.15,5.51,4.07,9.21,5.77,3.7,1.7,7.73,3.41,12.1,5.11,4.36,1.7,8.4,3.7,12.1,5.99,3.7,2.3,6.77,5.03,9.21,8.21,2.44,3.18,3.66,7.14,3.66,11.88,0,4.44-.81,8.32-2.44,11.65-1.63,3.33-3.81,6.1-6.55,8.32-2.74,2.22-5.92,3.92-9.54,5.11-3.63,1.18-7.44,1.78-11.43,1.78-6.36,0-12.87-1.4-19.53-4.22-6.66-2.81-12.58-7.18-17.76-13.1l1.11-.89c4.88,3.55,10.13,6.25,15.76,8.1,5.62,1.85,10.95,2.78,15.98,2.78,5.62,0,10.28-1.14,13.98-3.44,3.7-2.29,5.55-5.81,5.55-10.54,0-3.55-1.22-6.4-3.66-8.54-2.44-2.14-5.51-4.03-9.21-5.66-3.7-1.63-7.66-3.25-11.88-4.88-4.22-1.63-8.18-3.62-11.88-5.99-3.7-2.37-6.77-5.36-9.21-8.99-2.44-3.62-3.66-8.25-3.66-13.87,0-3.55.59-6.92,1.78-10.1,1.18-3.18,3-5.96,5.44-8.32,2.44-2.37,5.62-4.25,9.54-5.66,3.92-1.4,8.55-2.11,13.87-2.11,6.21,0,11.21.59,14.98,1.78,3.77,1.19,6.66,2.63,8.66,4.33,2,1.7,3.22,3.59,3.66,5.66.44,2.07.44,3.96,0,5.66-.45,1.7-1.26,3.15-2.44,4.33-1.19,1.19-2.37,1.78-3.55,1.78-3.85,0-6.47-1.03-7.88-3.11-1.41-2.07-2.59-4.4-3.55-6.99-.96-2.59-2.11-4.92-3.44-6.99-1.33-2.07-3.77-3.11-7.32-3.11-4.14,0-7.73,1.78-10.77,5.33-3.04,3.55-4.55,8.58-4.55,15.09Z"/>
      <path class="cls-1" d="M691.24,178.6c-2.07,2.66-4.62,4.7-7.66,6.1-3.04,1.4-6.03,2.11-8.99,2.11-4.29,0-8.03-1.37-11.21-4.11-3.18-2.74-4.77-6.92-4.77-12.54v-50.83c-.45-6.8-1.63-11.88-3.55-15.2-1.92-3.33-4.37-4.99-7.32-4.99-2.66,0-5.62,1.44-8.88,4.33-3.26,2.89-6.59,7.14-9.99,12.76v68.81h-16.2v-61.04c0-8.43-1-14.68-3-18.76-2-4.07-4.63-6.1-7.88-6.1-2.66,0-5.62,1.44-8.88,4.33-3.26,2.89-6.59,7.14-9.99,12.76v68.81h-16.2v-81.9c-.15-2.07-.96-3.85-2.44-5.33-1.48-1.48-3.85-2.37-7.1-2.66v-.44l25.3-4h.45v19.31c4.14-6.51,8.77-11.35,13.87-14.54,5.11-3.18,9.95-4.77,14.54-4.77s8.55,1.59,11.88,4.77c3.33,3.18,5.22,8.1,5.66,14.76,4.14-6.51,8.77-11.39,13.87-14.65,5.11-3.25,9.95-4.88,14.54-4.88,4.88,0,9.02,1.89,12.43,5.66,3.4,3.77,5.11,9.43,5.11,16.98v49.94c0,4.88.89,8.81,2.66,11.76,1.78,2.96,4.59,4.44,8.44,4.44,1.78,0,3.55-.29,5.33-.89Z"/>
      <path class="cls-1" d="M776.25,168.39c-5.47,6.07-11.76,10.69-18.87,13.87-7.1,3.18-14.21,4.77-21.31,4.77-5.33,0-10.43-.93-15.32-2.78-4.88-1.85-9.18-4.77-12.87-8.77-3.7-4-6.66-9.02-8.88-15.09-2.22-6.07-3.33-13.32-3.33-21.75,0-6.07.89-12.02,2.66-17.87,1.78-5.84,4.4-11.06,7.88-15.65,3.47-4.58,7.69-8.25,12.65-10.99,4.96-2.74,10.62-4.11,16.98-4.11,6.95,0,12.95,1.11,17.98,3.33,5.03,2.22,9.17,5.25,12.43,9.1,3.25,3.85,5.7,8.36,7.33,13.54,1.63,5.18,2.44,10.8,2.44,16.87v3.55h-51.05v-2.44l32.41-5.99c-.3-5.92-1.11-11.06-2.44-15.43-1.33-4.36-3-7.95-4.99-10.76-2-2.81-4.22-4.88-6.66-6.22-2.44-1.33-4.99-2-7.66-2-2.96,0-5.85.81-8.66,2.44-2.81,1.63-5.33,4.07-7.55,7.33-2.22,3.26-4.03,7.21-5.44,11.88-1.41,4.66-2.11,10.03-2.11,16.09,0,8.29.96,15.32,2.88,21.09,1.92,5.77,4.51,10.47,7.77,14.09,3.25,3.63,6.99,6.25,11.21,7.88,4.22,1.63,8.62,2.44,13.21,2.44,4.88,0,9.77-.85,14.65-2.55,4.88-1.7,9.39-4.03,13.54-6.99l1.11,1.11Z"/>
      <path class="cls-1" d="M826.85,178.37c-2.07,2.66-4.62,4.7-7.66,6.1-3.04,1.4-6.1,2.11-9.21,2.11-4.14,0-7.81-1.37-10.99-4.11-3.18-2.74-4.77-6.92-4.77-12.54v-74.8h-6.66v-3.55h6.66v-21.09l16.2-8.88v29.96h7.77v3.55h-7.77v67.92c0,4.88.89,8.81,2.66,11.76,1.78,2.96,4.58,4.44,8.43,4.44,1.78,0,3.55-.29,5.33-.89Z"/>
      <path class="cls-1" d="M872.36,90.48c9.17,0,16.79,2.41,22.86,7.21,6.07,4.81,10.62,10.8,13.65,17.98,3.03,7.18,4.51,14.95,4.44,23.31-.08,8.36-1.59,16.13-4.55,23.31-2.96,7.18-7.51,13.17-13.65,17.98-6.14,4.81-13.73,7.21-22.75,7.21s-16.8-2.41-22.86-7.21c-6.07-4.81-10.62-10.8-13.65-17.98-3.04-7.18-4.55-14.94-4.55-23.31s1.52-16.13,4.55-23.31c3.03-7.18,7.58-13.17,13.65-17.98,6.07-4.81,13.69-7.21,22.86-7.21ZM872.36,183.92c5.03,0,9.21-2.22,12.54-6.66,3.33-4.44,5.81-9.99,7.44-16.65,1.62-6.66,2.44-13.87,2.44-21.64s-.82-14.98-2.44-21.64c-1.63-6.66-4.11-12.21-7.44-16.65-3.33-4.44-7.51-6.66-12.54-6.66s-9.21,2.22-12.54,6.66c-3.33,4.44-5.85,9.99-7.55,16.65-1.7,6.66-2.55,13.87-2.55,21.64s.85,14.98,2.55,21.64c1.7,6.66,4.22,12.21,7.55,16.65,3.33,4.44,7.51,6.66,12.54,6.66Z"/>
      <path class="cls-1" d="M946.27,38.32v146.72h-16.2V50.97c-.15-2.07-.96-3.88-2.44-5.44-1.48-1.55-3.85-2.48-7.1-2.77v-.44l25.3-4h.45Z"/>
      <path class="cls-1" d="M1004.2,90.48c9.17,0,16.79,2.41,22.86,7.21,6.07,4.81,10.62,10.8,13.65,17.98,3.03,7.18,4.51,14.95,4.44,23.31-.08,8.36-1.59,16.13-4.55,23.31-2.96,7.18-7.51,13.17-13.65,17.98-6.14,4.81-13.73,7.21-22.75,7.21s-16.8-2.41-22.86-7.21c-6.07-4.81-10.62-10.8-13.65-17.98-3.04-7.18-4.55-14.94-4.55-23.31s1.52-16.13,4.55-23.31c3.03-7.18,7.58-13.17,13.65-17.98,6.06-4.81,13.69-7.21,22.86-7.21ZM1004.2,183.92c5.03,0,9.21-2.22,12.54-6.66s5.81-9.99,7.44-16.65c1.63-6.66,2.44-13.87,2.44-21.64s-.81-14.98-2.44-21.64c-1.63-6.66-4.11-12.21-7.44-16.65s-7.51-6.66-12.54-6.66-9.21,2.22-12.54,6.66-5.85,9.99-7.55,16.65c-1.7,6.66-2.55,13.87-2.55,21.64s.85,14.98,2.55,21.64c1.7,6.66,4.22,12.21,7.55,16.65s7.51,6.66,12.54,6.66Z"/>
      <path class="cls-1" d="M1136.27,82.93c4.14,0,7.25.93,9.32,2.77,2.07,1.85,3.22,3.85,3.44,5.99.22,2.15-.45,4.14-2,5.99-1.55,1.85-3.88,2.77-6.99,2.77-1.93,0-3.55-.52-4.88-1.55-1.33-1.03-2.66-2.14-4-3.33-1.33-1.18-2.85-2.29-4.55-3.33-1.7-1.03-3.96-1.55-6.77-1.55-1.48,0-2.81.33-3.99,1-1.19.67-2.37,1.52-3.55,2.55,5.92,2.07,10.65,5.25,14.21,9.54,3.55,4.29,6.03,9.03,7.44,14.21,1.4,5.18,1.7,10.51.89,15.98-.81,5.48-2.77,10.43-5.88,14.87s-7.33,8.1-12.65,10.99c-5.33,2.88-11.76,4.33-19.31,4.33-5.18,0-9.8-.67-13.87-2-4.07-1.33-7.66-3.18-10.77-5.55-2.37,1.78-3.55,4.37-3.55,7.77,0,3.85,1.74,6.7,5.22,8.55,3.47,1.85,7.84,3.22,13.1,4.11,5.25.89,10.91,1.59,16.98,2.11,6.06.52,11.72,1.44,16.98,2.77,5.25,1.33,9.62,3.36,13.1,6.1,3.48,2.74,5.22,6.77,5.22,12.1s-1.19,9.58-3.55,13.21c-2.37,3.62-5.48,6.66-9.32,9.1-3.85,2.44-8.18,4.22-12.99,5.33-4.81,1.11-9.73,1.67-14.76,1.67-11.84,0-21.01-1.52-27.52-4.55-6.51-3.03-11.03-6.36-13.54-9.99-2.52-3.63-3.33-6.96-2.44-9.99.89-3.03,2.81-4.55,5.77-4.55,3.25,0,5.66.63,7.21,1.89,1.55,1.26,2.81,2.85,3.77,4.77.96,1.92,1.85,3.96,2.66,6.1.81,2.14,2.11,4.18,3.88,6.1,1.78,1.92,4.29,3.51,7.55,4.77,3.25,1.26,7.69,1.89,13.32,1.89,3.7,0,7.25-.44,10.65-1.33,3.4-.89,6.4-2.11,8.99-3.66,2.59-1.55,4.66-3.44,6.21-5.66,1.55-2.22,2.33-4.66,2.33-7.32,0-4.29-1.63-7.25-4.88-8.88-3.26-1.63-7.36-2.77-12.32-3.44-4.96-.67-10.32-1.11-16.09-1.33-5.77-.22-11.14-1.04-16.09-2.44-4.96-1.41-9.07-3.77-12.32-7.1-3.26-3.33-4.88-8.32-4.88-14.98,0-2.66.81-5.47,2.44-8.43,1.62-2.96,3.77-5.18,6.44-6.66-3.55-3.25-6.25-7.1-8.1-11.54-1.85-4.44-2.88-8.99-3.11-13.65-.22-4.66.41-9.25,1.89-13.76,1.48-4.51,3.81-8.55,6.99-12.1,3.18-3.55,7.25-6.44,12.21-8.66,4.96-2.22,10.69-3.33,17.2-3.33,2.07,0,4.03.15,5.88.44,1.85.3,3.59.59,5.22.89,4.59-3.4,9.32-5.92,14.21-7.55,4.88-1.63,9.54-2.44,13.98-2.44ZM1096.98,160.62c4.44,0,8.14-1.63,11.1-4.88,2.96-3.25,5.18-7.29,6.66-12.1,1.48-4.81,2.22-10.06,2.22-15.76s-.74-10.95-2.22-15.76c-1.48-4.81-3.7-8.84-6.66-12.1-2.96-3.25-6.66-4.88-11.1-4.88-4.74,0-8.7,1.63-11.88,4.88-3.18,3.26-5.55,7.33-7.1,12.21-1.55,4.88-2.33,10.14-2.33,15.76s.78,10.88,2.33,15.76c1.55,4.88,3.92,8.92,7.1,12.1,3.18,3.18,7.14,4.77,11.88,4.77Z"/>
    </g>
    <g>
      <path class="cls-1" d="M727.42,276.99l-21.65-75.1c-.38-1.05-.9-1.99-1.58-2.82-.68-.83-1.84-1.31-3.5-1.47v-.23h3.72l9.25.11,18.16,64.73,18.15-61.79h2.26l17.82,61.57,14.09-49.73c.68-2.33,1.11-4.32,1.3-5.98.19-1.65.06-3.06-.39-4.23-.45-1.17-1.28-2.09-2.48-2.76-1.2-.68-2.82-1.24-4.85-1.69v-.23h12.86l-22.67,79.61h-2.14l-18.27-60.55-17.93,60.55h-2.14Z"/>
      <path class="cls-1" d="M816.62,228.28c1.5,0,2.65.47,3.44,1.41.79.94,1.2,1.99,1.24,3.16.04,1.17-.34,2.22-1.13,3.16-.79.94-2.01,1.41-3.67,1.41-.9,0-1.62-.13-2.14-.39-.53-.26-1-.56-1.41-.9-.41-.34-.85-.64-1.3-.9-.45-.26-1.09-.39-1.92-.39-1.5,0-2.91.55-4.23,1.63-1.32,1.09-2.58,2.58-3.78,4.45v35.41h-8.23v-41.5c-.08-1.05-.49-1.95-1.24-2.71-.75-.75-1.96-1.2-3.61-1.35v-.23l12.86-2.03h.23v9.7c2.03-3.01,4.36-5.41,6.99-7.22,2.63-1.8,5.26-2.71,7.89-2.71Z"/>
      <path class="cls-1" d="M844.47,228.28c4.66,0,8.53,1.22,11.61,3.67,3.08,2.44,5.39,5.49,6.93,9.13,1.54,3.65,2.29,7.59,2.26,11.84-.04,4.25-.81,8.2-2.31,11.84-1.5,3.65-3.82,6.69-6.94,9.13-3.12,2.44-6.97,3.67-11.56,3.67s-8.53-1.22-11.61-3.67c-3.08-2.44-5.4-5.49-6.94-9.13-1.54-3.64-2.31-7.59-2.31-11.84s.77-8.19,2.31-11.84c1.54-3.65,3.85-6.69,6.94-9.13,3.08-2.44,6.95-3.67,11.61-3.67ZM844.47,275.75c2.55,0,4.68-1.13,6.37-3.38,1.69-2.26,2.95-5.07,3.78-8.46.83-3.38,1.24-7.05,1.24-10.99s-.41-7.61-1.24-10.99c-.83-3.38-2.09-6.2-3.78-8.46s-3.82-3.38-6.37-3.38-4.68,1.13-6.37,3.38-2.97,5.07-3.83,8.46c-.87,3.38-1.3,7.05-1.3,10.99s.43,7.61,1.3,10.99c.86,3.38,2.14,6.2,3.83,8.46,1.69,2.25,3.81,3.38,6.37,3.38Z"/>
      <path class="cls-1" d="M912.58,267.86c-2.78,3.08-5.98,5.43-9.58,7.05-3.61,1.62-7.22,2.42-10.83,2.42-2.71,0-5.3-.47-7.78-1.41-2.48-.94-4.66-2.42-6.54-4.45-1.88-2.03-3.38-4.58-4.51-7.67-1.13-3.08-1.69-6.77-1.69-11.05,0-3.08.51-6.11,1.52-9.08,1.01-2.97,2.48-5.62,4.4-7.95,1.92-2.33,4.27-4.19,7.05-5.58,2.78-1.39,5.94-2.09,9.47-2.09s6.37.3,8.51.9c2.14.6,3.78,1.35,4.91,2.26,1.13.9,1.8,1.86,2.03,2.88s.21,1.97-.06,2.88c-.26.9-.72,1.66-1.35,2.26-.64.6-1.26.9-1.86.9-1.96,0-3.4-.54-4.34-1.64-.94-1.09-1.79-2.27-2.54-3.55-.75-1.28-1.62-2.46-2.59-3.55-.98-1.09-2.48-1.64-4.51-1.64-1.5,0-3.01.41-4.51,1.24-1.5.83-2.84,2.07-4,3.72-1.17,1.65-2.11,3.68-2.82,6.09-.71,2.41-1.07,5.15-1.07,8.23,0,4.06.49,7.55,1.47,10.49.98,2.93,2.29,5.34,3.95,7.22,1.65,1.88,3.57,3.27,5.75,4.17,2.18.9,4.43,1.35,6.77,1.35,5.04,0,9.77-1.65,14.21-4.96l.56.56Z"/>
      <path class="cls-1" d="M927.69,201.78v74.54h-8.23v-68.11c-.08-1.05-.49-1.97-1.24-2.76-.75-.79-1.96-1.26-3.61-1.41v-.23l12.85-2.03h.23Z"/>
      <path class="cls-1" d="M977.53,272.59c-1.28,1.43-2.65,2.5-4.12,3.21-1.47.71-2.95,1.07-4.45,1.07-2.18,0-4.08-.79-5.69-2.37-1.62-1.58-2.42-3.95-2.42-7.1v-2.14c-1.05,4.14-2.93,7.1-5.64,8.91-2.71,1.8-5.6,2.71-8.68,2.71-2.71,0-4.94-.62-6.71-1.86-1.77-1.24-3.01-2.82-3.72-4.74-.72-1.92-.88-4.04-.51-6.37.38-2.33,1.35-4.6,2.93-6.82,1.58-2.22,3.83-4.21,6.77-5.98,2.93-1.77,6.54-3.06,10.83-3.89v1.13c-4.36,1.96-7.61,4.23-9.75,6.82-2.14,2.59-3.37,5.07-3.67,7.44-.3,2.37.23,4.38,1.58,6.03,1.35,1.65,3.34,2.48,5.98,2.48,1.13,0,2.31-.3,3.55-.9,1.24-.6,2.39-1.47,3.44-2.59,1.05-1.13,1.92-2.46,2.59-4,.68-1.54,1.01-3.25,1.01-5.13v-18.38c0-2.78-1.15-4.92-3.44-6.43-2.29-1.5-5.09-2.26-8.4-2.26-2.78,0-5.49.49-8.12,1.47v-.9c2.18-1.43,4.45-2.48,6.82-3.16s4.72-1.02,7.05-1.02c1.95,0,3.79.26,5.53.79,1.73.53,3.25,1.3,4.57,2.31,1.31,1.01,2.37,2.29,3.16,3.83.79,1.54,1.18,3.33,1.18,5.36v23.68c0,2.86.45,5.11,1.35,6.77.9,1.65,2.37,2.48,4.4,2.48.38,0,.77-.04,1.18-.11.41-.07.88-.19,1.41-.34Z"/>
      <path class="cls-1" d="M1030.98,233.91c0-1.8.51-3.16,1.52-4.06s2.09-1.35,3.21-1.35c1.05,0,1.97.32,2.76.96.79.64,1.18,1.6,1.18,2.88,0,2.33-.62,5.24-1.86,8.74-1.24,3.5-2.82,7.24-4.74,11.22-1.92,3.99-4,8.06-6.26,12.24-2.25,4.17-4.44,8.1-6.54,11.78h-2.48c-.15-3.46-.73-7.44-1.75-11.95-1.01-4.51-2.27-8.91-3.78-13.19-1.96,4.14-4.12,8.38-6.48,12.74-2.37,4.36-4.64,8.5-6.82,12.4h-2.59c-.08-2.41-.38-5.13-.9-8.17-.53-3.04-1.24-6.15-2.14-9.3s-1.92-6.22-3.04-9.19c-1.13-2.97-2.31-5.62-3.55-7.95-1.24-2.33-2.5-4.21-3.78-5.64-1.28-1.43-2.48-2.14-3.61-2.14-.6,0-1.13.09-1.58.28-.45.19-.83.36-1.13.51-.38.3-.71.6-1.01.9l-.11-.11c.68-1.35,1.47-2.55,2.37-3.61.75-.83,1.62-1.62,2.59-2.37.98-.75,2.07-1.13,3.27-1.13,2.48,0,4.7,1.17,6.65,3.5,1.95,2.33,3.74,5.28,5.36,8.85,1.62,3.57,3.06,7.44,4.34,11.61,1.28,4.17,2.48,8.1,3.61,11.78,1.73-3.16,3.27-6.05,4.62-8.68,1.35-2.63,2.37-4.85,3.04-6.65-.83-2.1-1.69-4.06-2.59-5.86-.9-1.8-1.82-3.38-2.76-4.74-.94-1.35-1.86-2.41-2.76-3.16-.9-.75-1.77-1.13-2.59-1.13-.6,0-1.11.09-1.52.28-.41.19-.81.36-1.18.51-.38.3-.68.6-.9.9l-.11-.11c.68-1.35,1.47-2.55,2.37-3.61.75-.83,1.62-1.62,2.59-2.37.98-.75,2.07-1.13,3.27-1.13,1.43,0,2.74.39,3.95,1.18,1.2.79,2.27,1.79,3.21,2.99.94,1.2,1.79,2.46,2.54,3.78.75,1.32,1.39,2.54,1.92,3.67,1.73,3.61,3.25,7.57,4.57,11.9,1.31,4.32,2.57,8.4,3.78,12.23,2.25-4.28,4.21-8.06,5.86-11.33,1.65-3.27,2.48-5.66,2.48-7.16,0-2.03-.13-3.55-.39-4.57-.26-1.01-.55-1.84-.85-2.48-.3-.64-.58-1.26-.85-1.86-.26-.6-.4-1.54-.4-2.82Z"/>
    </g>
  </g>
</svg>