<?xml version="1.0" encoding="UTF-8"?>
<svg id="Warstwa_2" data-name="Warstwa 2" xmlns="http://www.w3.org/2000/svg" viewBox="0 0 744.94 343.03">
  <defs>
    <style>
      .cls-1 {
        fill: #c8e0d6;
      }
    </style>
  </defs>
  <g id="Warstwa_1-2" data-name="Warstwa 1">
    <path class="cls-1" d="M66.17,236.61c4.99-1.97,9.95-1.97,14.93-3.14l7.48-1.81c7.46-2.34,14.91-4.72,22.35-7.19,11.24-3.87,22.29-9.12,32.89-15.61,13.65-8.15,27.55-15.54,41.22-23.62,3.37-2,6.73-4.1,10.12-6.07,2.21-1.25,4.5-2.36,6.71-3.59,1.57-.85,3.23-1.35,4.85-1.47,12.39-1.17,24.88-3.55,37.32-5.79.62-.15,1.25-.17,1.82-.06-.27.15-.55.32-.82.43l-19.91,8.85c-4.63,2.09-9.3,4.16-13.93,6.33-5.46,2.55-10.91,5.2-16.37,7.78-10.07,4.88-19.7,11.23-28.57,18.82-10.48,8.91-20.38,18.64-29.58,29.08-6.78,7.62-13.19,15.53-19.42,23.6-1.23,1.58-2.62,3.06-3.93,4.57-.37.47-.74.95-1.32,1.51l.59,1.17c.42-.07.83-.17,1.24-.3,19.96-7.69,39.8-15.95,59.14-26.66,8.76-4.93,17.24-10.62,25.33-16.99,6.3-4.94,12.49-10.09,18.59-15.4,10.99-9.55,21.5-19.77,31.45-30.57,2.09-2.18,4.32-4.17,6.67-5.99,2.34-1.97,4.58-4.06,6.74-6.28,2.73-2.81,6.1-4.75,9.54-5.51,3.5-.76,6.99-1.7,10.51-2.16,1.58-.37,3.15-.85,4.71-1.43,23.52-6.2,47.03-12.38,70.57-18.53,2.87-.74,5.72-1.28,8.6-1.9-3.72,2.2-7.34,4.24-11.01,6.37-13.44,7.82-26.61,16.21-39.55,25.17-9.02,6.25-17.76,13.04-26.17,20.32-4.76,4.15-9.35,8.54-13.75,13.15-3.66,3.82-7.07,7.9-10.56,11.91-2.16,2.47-4.25,4.97-6.39,7.45-4.83,5.55-9.68,11.06-14.57,16.64-.43.55-.96,1.03-1.53,1.64-.87.01-1.78.01-2.69.05-14.97.8-29.99,3-45.08,8.54-11.6,4.15-23.01,9.56-34.04,16.13-8.36,5.03-16.78,9.84-25.17,14.72-.28.16-.57.34-.95.59l-.35,1.1c.24.19.39.45.57.44.9.01,1.82-.04,2.73-.16,6.54-1.12,13.05-1.84,19.58-2.58,9.29-.97,18.64-2.93,27.96-4.74,5.85-1.13,11.7-2.55,17.53-3.89,4.6-1.08,9.19-2.46,13.74-4.14,6.7-2.42,13.43-4.82,20.08-7.8,1.91-.85,3.86-1.48,5.74-2.17,4.73-1.58,9.42-3.49,14.03-5.72,5.91-2.85,11.94-5.13,18.02-6.81.5-.12,1.01-.21,1.51-.26-.69.42-1.39.88-2.1,1.27-8.38,4.41-16.62,9.23-24.71,14.47-7.16,4.99-14.14,10.33-20.91,16-11.69,9.75-22.73,20.48-32.93,32.01-6.05,6.56-11.8,13.43-17.24,20.54-2.11,2.85-4.12,5.76-6.21,8.65-1.12,1.45-2.18,2.96-3.33,4.53l.43.95c.34-.06.61-.02.78-.15,1.01-.82,2.06-1.59,3.12-2.3,2.8-1.61,5.6-3.27,8.49-4.62,15.5-7.21,30.36-16.69,44.09-28.11,4.91-4.08,9.67-8.39,14.25-12.92,3.7-3.66,7.3-7.38,10.8-11.31,5.23-6.24,10.13-12.77,14.63-19.56,3.03-4.35,6.22-8.6,9.52-12.77,2.55-3.09,5.58-5.71,8.89-7.69.58-.34,1.2-.59,1.82-.73,6.14-1.77,12.29-3.42,18.43-5.26,2.72-.86,5.43-1.87,8.11-3.01,9.63-4,19.3-8.07,28.95-12.1.81-.33,1.62-.55,2.43-.81-.72.56-1.42,1.16-2.16,1.67-6.84,4.61-13.49,9.64-19.9,15.03-3.45,2.97-6.86,6.01-10.12,9.21-4.24,4.13-8.45,8.28-12.43,12.65-5.37,5.88-10.4,12.09-15.05,18.56-10.24,14.26-19.22,29.32-26.77,44.92-2.22,4.46-4.63,8.88-6.96,13.3-.45.86-1.04,1.73-.23,2.54.34-.17.79-.26,1.04-.52,5.21-5.43,10.87-10.29,16.9-14.52,6.67-4.97,13.55-9.64,20.19-14.81,4.82-3.61,9.31-7.65,13.83-11.69,4.83-4.33,9.62-8.77,14.23-13.37,4.61-4.6,8.91-9.34,13.26-14.12,2.72-2.97,5.3-6.16,7.97-9.25,5.31-6.18,10.17-12.75,14.49-19.63,3.91-6.21,7.86-12.4,11.76-18.6,1-1.56,1.83-3.19,2.81-4.79,2.38-3.91,4.78-7.82,7.2-11.73,1.01-1.57,2.42-2.85,4.02-3.61,4.42-2.31,8.91-4.38,13.44-6.2,3.58-1.49,7.12-3.34,10.64-5.16,7.42-3.87,14.84-7.7,22.22-11.77,8.02-4.44,16.19-8.39,24.34-12.4,2.82-1.39,5.76-2.44,8.64-3.63l-6.81,5.1c-7.19,5.32-14.06,11.19-20.55,17.55-4.97,4.9-9.97,9.76-14.82,14.76-6.42,6.45-12.45,13.34-18,20.6-4.35,5.83-8.18,12.02-11.41,18.46-8.3,16.48-14.81,33.55-19.38,50.84-1.95,7.16-3.83,14.3-5.71,21.45-.13.59-.21,1.18-.25,1.76.26.19.61.22.96.1.18-.06.34-.16.5-.29.15-.13.28-.28.38-.45l2.28-2.94c3.54-4.55,7.49-8.76,11.76-12.55,5.99-5.51,12.37-10.72,17.95-16.72,2.97-3.16,6.17-6.09,9.09-9.27,7.34-7.79,14.21-16.05,20.55-24.68,9.45-12.97,17.59-26.79,24.27-41.16,1.43-3.18,2.63-6.44,3.93-9.65,3.28-8.22,6.53-16.45,9.86-24.65.73-1.68,1.57-3.32,2.54-4.91,1.27-2.22,2.63-4.38,3.98-6.56.45-.73,1.07-1.38,1.49-2.1l21.65-8.25c-.39.47-.81.91-1.25,1.35-4.84,4.21-9.3,8.91-13.28,14.01-8.74,11.08-16.36,22.97-22.68,35.43-6.04,12.02-10.34,24.6-12.7,37.23-1.58,8.31-2.53,16.62-2.85,24.81-.73,15.03-1.44,30.05-2.11,45.07-.17,4.14-.18,8.24-.16,12.34-.17,1.52.15,2.94.92,4.04l1.43-.03c.64-.82,1.23-1.58,1.77-2.59,1.19-2.04,2.39-4.12,3.52-6.21,5.5-10.14,11.04-20.23,16.46-30.41,8.65-15.96,15.56-32.59,20.55-49.49,4.64-16.11,7.15-32.34,7.45-48.2.09-5.34.36-10.69.62-16.06.15-4.06.71-8.18,1.66-12.3.58-2.81,1.7-5.57,3.3-8.14.58-.84,1.21-1.65,1.88-2.43,4.61-.37,9.27-1.19,13.92-2.48.39-.09.78-.17,1.17-.21,6.68-.86,13.42-2.67,20.03-5.38.76-.31,1.53-.56,2.32-.74,6.15-1.27,12.32-3.27,18.46-4.13,1.33-.18,2.65-.51,3.96-.96,2.79-.95,5.61-1.63,8.4-2.04.46-.08.93-.16,1.41-.28,8.1-1.86,16.2-2.99,24.18-3.41,13.59-1.16,27.08-1.55,40.39-1.2,4.6.17,9.18.45,13.71.96,7.73.91,15.5,1.88,23.19,2.96,5.3.73,10.42,1.99,15.3,3.75,5.43,1.93,10.61,4.32,15.77,6.76,5.6,2.65,11.43,4.92,17.17,7.3,5.23,2.16,10.52,4.18,15.74,6.35,3.5,1.45,6.94,3.03,10.42,4.54.53.21,1.07.37,1.62.51.35.16.76.19,1.18.12s.83-.28,1.2-.57c.53-.65.72-1.49.48-2.16-.37-1.73-1.31-3.17-2.66-4.08l-.5-.39c-5.06-2.46-10.05-5.05-15.2-7.33-6.26-2.78-12.66-5.3-19.01-7.95-1.06-.44-2.09-.93-3.18-1.27-7.56-2.28-14.86-5.11-22.67-6.81-1.92-.42-3.8-.96-5.63-1.6-8.71-2.92-17.84-4.76-26.84-6.93-6.53-1.6-13.15-2.91-19.9-3.85-6.77-.93-13.8-2.4-20.84-3.14-12.98-1.33-26.01-2.56-39.21-3.03-1.52-.05-3.01-.2-4.52-.23-2.99.01-5.7-.99-7.75-2.87-3.71-3.37-7.54-6.63-11.14-10.14-7.76-7.81-14.03-17.13-18.63-27.64-4.62-10.01-9.36-19.94-14.27-29.77-3.02-5.78-6.96-10.83-11.72-14.96-3.09-2.82-6.33-5.43-9.51-8.14-4.57-3.68-9.41-7.03-14.47-10.05-3.58-2.27-7.27-4.4-10.93-6.55-.94-.55-1.94-1.02-2.99-1.38-.42-.2-.9-.27-1.42-.18-.51.1-1.02.33-1.46.68-.86,1.11-.53,2.12-.29,2.98.63,2.08,1.29,4.17,2.01,6.21,4.89,13.81,9.48,27.79,13.77,41.94,1.79,6.67,4.18,13.03,7.14,19.01,2.76,5.66,6.29,10.76,10.49,15.18,7.74,7.55,17.05,13.23,27.47,16.77,6.53,2.1,13.25,3.78,20.11,5.07,3.59.72,7.16,1.52,10.72,2.33.54.16,1.05.38,1.51.66-1.18.06-2.35.04-3.5-.06-9.03-1.16-18.43-.51-27.81,0-7.07.39-14.18,1.08-21.15.89-7.39-.31-14.9-.13-22.47.55-2.86.28-5.73.73-8.61,1.32-2.58.57-5.12.66-7.54.27-5.08-.68-9.86-2.2-14.19-4.52-2.89-1.63-6.03-2.87-8.89-4.53-2.38-1.41-4.63-2.99-6.75-4.75-2.73-2.12-5.2-4.56-7.77-6.92-6.73-5.95-12.9-12.55-18.47-19.73-2.33-3.07-4.77-6.02-7.31-8.82-6.93-7.44-15.3-13.29-24.73-17.29-5.3-2.34-10.73-4.42-16.1-6.59-.65-.27-1.29-.68-2.18.21-.42,1.05.23,1.58.73,2.14,1.86,2.15,3.42,4.61,4.63,7.3,2.54,5.37,4.98,10.83,7.53,16.21,2.7,5.7,5.32,11.39,8.21,17.03,3.13,5.59,7.18,10.45,12,14.4,5,4.5,11.21,7.13,17.33,9.85,3.85,1.72,7.78,3.28,11.74,4.77,4.03,1.37,8.31,2.21,12.73,2.5,6.69.61,13.55.79,20.37.77,1.21.05,2.4.18,3.57.36-3.19.47-6.39.91-9.6,1.38-6.29.93-12.57,1.85-18.86,2.82-4.12.6-8.23,1.23-12.35,2-2.57.45-5.15,1.06-7.7,1.82-5.68,1.76-11.32,3.66-16.98,5.57-1.17.39-2.35.42-3.38.08-6.48-1.87-12.49-4.74-17.84-8.56-3.07-2.38-6.15-4.77-8.95-7.46-2.09-2.11-4.04-4.4-5.8-6.84-5.73-7.41-10.43-15.72-15.59-23.61-3.92-6.06-8.2-11.82-12.82-17.24-4.51-5.04-9.65-9.41-15.33-13.02-8.66-5.78-17.89-10.68-27.64-14.67-2.11-.89-4.17-1.86-6.21-2.85-1.59-.67-2.97-1.69-4.09-3-.32-.32-.69-.6-1.07-.83l-1.53,1.08c.11.63.27,1.23.49,1.81,5.12,9.06,8.26,19.44,13.13,28.69,1.73,3.28,3,6.91,4.5,10.35,1.63,3.98,3.66,7.69,6.1,11.08,2.16,2.85,4.5,5.52,6.76,8.29,3.54,4.29,7.56,8.1,12.02,11.35,1.58,1.17,3.08,2.48,4.46,3.9,3.49,3.32,7.36,6.2,11.55,8.59,5.58,3.23,11.38,6.12,17.38,8.64.71.33,1.44.61,2.2.84,9.77,3.15,20.08,5.05,30.75,5.68.42.05.83.16,1.22.29-.59.28-1.18.52-1.77.72-2.88.84-5.76,1.68-8.63,2.44-7.94,2.09-15.9,4.2-23.82,6.2-7.32,1.76-14.65,3.09-21.93,3.99-3.34.54-6.64.68-9.85.43-3.51-.3-6.81-1.26-9.75-2.84-5.17-2.69-10.09-5.79-14.73-9.27-1.06-.82-2.05-1.74-2.98-2.7-6.46-6.46-12.6-13.25-18.71-20.24-4.39-5.03-9-9.86-13.57-14.73-6.28-6.61-14.17-11.34-23.15-13.86-6.34-1.85-12.6-3.81-18.99-5.53-2.87-.78-5.9-1.13-8.88-1.61-.67-.12-1.47-.22-2.09.75.11.27.11.58.27.64,3.19,1.46,4.78,4.52,6.6,7.4,4.86,8.23,9.03,16.98,12.47,26.18,2.31,5.9,5.79,11.02,10.26,15.08,3.17,2.86,6.43,5.69,9.73,8.51,3.68,2.99,7.7,5.52,12.02,7.57,2.67,1.33,5.33,2.69,7.93,4.13,7.01,3.93,15.1,5.96,23.72,5.96,6.49-.11,13.04-.61,19.64-1.5,2.62-.3,5.23-.48,7.85-.73l.53.05-.55.19c-3.25,1.06-6.49,2.18-9.76,3.14-5.27,1.57-10.57,3.02-15.86,4.51-.94.26-1.86.51-2.8.71l-16.59,3.58c-.31.08-.62.15-.92.17-3.54.23-7.12.8-10.7,1.71-3.56.62-7.2,1.45-10.73,2.24-.23.07-.46.13-.69.17l-11.88,2.06c-.47.03-.93.09-1.41.21-4.12,1.02-8.24,1.51-12.25,1.44-2.31.15-4.64.47-6.95.63-3.18.38-6.26.11-9.09-.77-.67-.25-1.43-.33-2.2-.24-1.33.17-2.59-.11-3.59-.76-1.87-1.14-3.78-2.25-5.48-3.6-6.3-5.16-11.67-11.43-15.91-18.62-4.12-6.9-8.63-13.48-13.55-19.71-3.42-4.1-7.31-7.74-11.6-10.85-8.96-6.56-18.92-11.73-29.63-15.38-2.23-.77-4.6-1.31-6.88-2.01-4.91-1.5-9.92-3.12-14.87-4.7-.53-.21-1.07-.38-1.64-.49-.58,0-1.17.07-1.76.21-.04.59,0,1.17.1,1.73.15.42.39.79.71,1.07,2.97,3.55,5.65,7.39,8.01,11.46,4.14,6.17,7.35,13.02,10.8,19.71,2.81,5.54,6.2,10.66,10.12,15.27.92,1.08,1.79,2.22,2.67,3.34,3.73,4.41,8.06,8.19,12.91,11.28,4.33,3.06,9.07,5.52,14.14,7.37,2.08.75,4.09,1.64,6.02,2.67,4.2,2.25,8.86,3.69,13.81,4.3,5.07.66,10.19,1.21,15.28,1.83.67.1,1.32.27,1.96.45-5.48.4-11.04,1.03-16.47,1.12-12.53.18-24.96.03-37.44.12-5.01-.11-9.81-.98-14.27-2.63-8.47-3.03-16.59-6.74-24.3-11.11-5.49-2.98-11.07-5.8-16.75-8.47-3.23-1.5-6.59-2.79-10.04-3.86-12.46-3.79-25.34-6.62-38.56-8.44-6.11-.8-12.36-1.16-18.68-1.09-3.73-.02-7.42-.12-11.15-.17-.52-.04-1.06-.03-1.6.02-.3,0-.63.11-.91.32-.28.22-.51.51-.64.82-.21,1.03.48,1.33,1.06,1.71,5.24,3.36,10.36,6.9,15.78,10,5.6,3.21,11.52,6.03,17.4,9.03,3.05,1.55,6.12,3.05,9.16,4.57,9.62,4.97,20.11,8.39,31.2,10.17,9.79,1.75,19.94,2.43,30.29,2.02,5.24-.3,10.44-.4,15.67-.75,2.38-.16,4.8-.69,7.21-1.01.84-.12,1.68-.18,2.51-.15,2.95.08,5.86.28,8.84.31,10.86.07,21.74.09,32.61.08,2.01,0,3.99-.11,5.98-.14.65,0,1.27.11,1.89.16-.82.29-1.63.63-2.46.86-12.3,3.36-24.62,6.63-36.9,10.04-11.94,3.24-23.73,8.41-34.92,15.32-9.5,5.84-18.59,12.61-27.12,20.19-4.04,3.65-8.06,7.34-12.06,10.97-.56.52-1.27.97-1.34,1.86-.04.2-.03.41.04.58s.17.32.33.42c.14.09.32.14.52.13s.39-.08.57-.19l-.12.03ZM45.35,164.79c.75.09,1.47.24,2.18.44,8.79,2.82,17.82,5.12,27.04,6.88,6.09,1.07,12.35,1.67,18.71,1.82,5.11.31,10.12.92,15.11,1.4.4.08.79.19,1.15.33-1.34.17-2.73.41-4.06.49-6.96.27-13.83.04-20.56-.72-11.41-1.04-22.36-3.56-32.61-7.53-2.35-.83-4.64-2.03-6.96-3.12h0ZM28.03,154.25c5.97,3.15,12.4,5.5,19.2,6.98,4.92,1.09,9.71,2.45,14.59,3.7,2.45.65,4.85,1.43,7.31,2.09,5.96,1.62,11.92,3.19,17.88,4.79.72.25,1.41.53,2.08.87-.36.05-.71.08-1.06.08-4.51-.21-8.95-.74-13.26-1.61-11.97-2.49-23.57-5.9-35.13-9.49-1.31-.4-2.59-.89-3.83-1.42-8.89-3.77-17.37-8.27-25.37-13.47-1.82-1.21-3.57-2.5-5.35-3.75.46-.11.92-.07,1.29.14,7.25,3.72,14.57,7.27,21.67,11.08h0ZM41.2,149.94c3.86,1.37,7.79,2.59,11.66,3.97,13.67,4.89,27.65,9.1,41.72,13.1,4.72,1.38,9.23,3.23,13.46,5.53l.92.23-.31.4.52.61-.87-.24c-.23.07-.47.12-.7.14-6.53-.04-12.9-.8-18.98-2.26-6.82-1.98-13.73-3.78-20.59-5.66-1.4-.38-2.79-.79-4.13-1.27-5.42-1.89-11.05-3.36-16.83-4.39-4.36-.76-8.52-2.03-12.41-3.82-6.28-3.04-12.4-6.35-18.57-9.56-.46-.28-.88-.61-1.26-.98.93.27,1.89.52,2.79.84,5.35,1.89,10.62,3.95,16.04,5.66,12.02,3.82,24.13,7.45,36.21,11.16.68.2,1.42.23,2.13.35-.66-.4-1.35-.76-2.06-1.04-10.3-3.32-20.55-6.75-30.94-9.84-9.45-2.81-18.42-6.53-27.73-9.61-.49-.22-.97-.48-1.42-.77.38-.05.77-.07,1.15-.05.67.09,1.31.19,1.96.32,9.66,1.79,19.09,4.19,28.24,7.19h0s-.03,0-.03,0ZM102.84,165.51c-.61-.13-1.2-.3-1.78-.49-1.81-.7-3.58-1.46-5.38-2.17-12.94-5.12-26.25-9.48-39.68-13.55-3.04-.93-6.08-1.89-9.23-2.55-6.67-1.41-13.4-2.6-20.11-3.9-.61-.11-1.16-.32-1.76-.5.8-.05,1.63-.17,2.4-.11,9.52.51,18.82,1.92,27.76,4.21,7.9,1.93,15.58,4.47,23.27,6.93,8.53,2.78,16.09,7.27,23.78,11.52.27.17.52.37.73.62h0ZM119.67,172.93c-1.5.03-2.97-.06-4.41-.27-4.55-.4-8.83-1.63-12.7-3.61-2.46-1.15-5.01-2.1-7.66-2.86-7.19-2.2-14.44-4.27-21.66-6.42-.77-.22-1.51-.47-2.27-.71l-29.23-9.98c-5.99-2.07-12.15-3.77-18.47-5.08-.59-.15-1.15-.33-1.71-.57.71-.04,1.43-.03,2.1.06,8.6,1.59,17.19,3.24,25.76,4.9.56.11,1.14.27,1.68.44,11.72,3.67,23.61,7.01,35.02,11.31,8.81,3.31,17.54,6.74,26.32,10.09,2.37.97,4.79,1.84,7.21,2.72h0ZM212.61,82.21c.42.58.83,1.17,1.27,1.73,2.6,3.23,4.8,6.82,6.57,10.71,2.27,4.89,4.79,9.69,7.24,14.51.56,1.12,1.23,2.15,2.01,3.08,4.03,4.69,8.44,9.01,13.19,12.93,3.4,2.75,7.07,5.16,10.96,7.21,4.72,2.87,9.83,5.13,15.24,6.75,6.35,1.63,12.73,3.13,19.04,4.82,3.24.88,6.37,2.07,9.54,3.11-.72.09-1.44.15-2.15.16-4.47-.17-8.91-.4-13.32-.64-.98-.04-1.94-.13-2.89-.29-7.46-1.35-14.58-3.61-21.23-6.72-2.56-1.23-5.1-2.53-7.62-3.85-5.89-2.87-11.22-6.68-15.83-11.29-1.78-1.87-3.52-3.82-5.29-5.73,0,.29.06.55.18.79,2.7,3.69,5.85,6.98,9.37,9.8,4.28,3.22,8.84,6.06,13.63,8.51,7.6,4.14,15.87,7.16,24.64,8.97,1.19.25,2.41.42,3.65.52,6.3.35,12.63.62,18.95.93.73.04,1.47.18,2.21.27-6.93.96-13.8,1.4-20.57,1.28-7.13-.16-13.86-1.81-19.82-4.87-3.46-1.8-6.99-3.52-10.47-5.28-5.4-2.58-10.32-5.93-14.69-9.97-3.11-2.99-6.03-6.2-8.98-9.3-2.79-3.13-5.04-6.79-6.67-10.86-2.42-5.61-4.66-11.37-7.18-16.83-2.2-5.18-5.07-9.89-8.57-14.03-.15-.21-.27-.45-.36-.71.13-.17.21-.27.29-.23,3.18.37,5.89,1.96,7.65,4.51h-.03ZM236.08,88.1c2.66,2.21,5.38,4.32,8.09,6.47,2.01,1.56,4.08,3.03,6.02,4.67,3.45,3,6.82,6.13,10.22,9.24.72.56,1.24,1.34,1.86,2.02,1.3,1.5,2.56,3.06,3.92,4.51.97,1.06,2.07,1.92,3.07,2.94,4.19,4.34,8.33,8.73,12.49,13.08.89.92,1.85,1.74,2.81,2.58,1.79,1.57,3.64,3.13,5.45,4.66-.37.09-.74.04-1.04-.12-4.73-2.6-9.15-5.66-13.24-9.15-5.67-4.98-11.2-10.16-16.79-15.24-1.63-1.47-3.33-2.86-4.96-4.3l-7.78-6.87c-.67-.52-1.22-1.2-1.84-1.75-3.14-2.87-6.23-5.76-9.4-8.57-1.41-1.29-2.91-2.46-4.51-3.5-2.38-1.52-4.93-2.81-7.41-4.17-2.48-1.36-4.66-2.55-6.97-3.82.34,0,.68.04.98.11l13.15,3.93c2.19.69,4.18,1.8,5.87,3.29v-.02ZM262.42,109.26l1.27,1.35c-2.53-1.96-4.87-4.16-7.18-6.4-4.28-4.23-8.85-8.11-13.7-11.63-1.84-1.43-3.58-2.96-5.38-4.44l.31-.4c.39.15.78.3,1.16.5,4.37,2.14,8.28,5,11.64,8.47,4.13,4.04,7.94,8.37,11.85,12.58l.03-.03ZM303.67,146.35l-.95.46-.96-.24c-1.29-.42-2.58-.88-3.9-1.2-8.46-1.96-16.53-4.83-24.12-8.56-5.33-2.71-10.37-5.84-15.4-8.98-4.65-2.83-8.88-6.29-12.6-10.28l-5.17-5.64c-.41-.32-.84-.65-1.17-1.09.09.54.34,1.02.7,1.36,1.96,2.14,4.01,4.2,5.92,6.4,2.82,3.2,6.03,5.98,9.58,8.3,6.71,4.7,13.8,8.85,21.24,12.41.93.42,1.79,1.01,2.68,1.52-.28.05-.57.06-.82.02-6.12-1.22-11.98-3.09-17.51-5.61-4.22-2.2-8.4-4.49-12.35-7.05-6.66-4.44-12.68-9.73-17.98-15.8-.47-.53-.89-1.11-1.25-1.73-3.12-5.23-5.9-10.72-8.3-16.45-1.32-3.3-3.03-6.33-5.12-9.06-.92-1.16-1.63-2.51-2.46-3.76,1.01.19,1.96.56,2.79,1.11,3.79,2.11,7.31,4.61,10.56,7.45,3.09,3.01,6.32,5.87,9.44,8.85,1.44,1.36,2.8,2.82,4.06,4.36,2.87,3.84,5.98,7.46,9.3,10.86l9.86,9.68c.43.32.92.57,1.44.75-2.01-2-3.92-4.11-6.05-5.94-3.11-2.78-5.97-5.84-8.55-9.17-3.3-4.5-6.91-8.71-10.82-12.61-3.69-3.39-7.31-6.86-11.17-10.51l1.77.76c2.93,1.46,5.6,3.34,7.98,5.56,3.85,3.42,7.58,6.97,11.39,10.43,4.01,3.68,8.05,7.3,12.09,10.94,4.26,3.83,8.6,7.54,12.7,11.55,3.91,3.88,8.2,7.36,12.79,10.38,1.63,1.06,3.21,2.18,4.79,3.27l-2.77-.63c.79.58,1.62,1.09,2.49,1.53,4.12,1.62,8.28,3.15,12.47,4.81,1.08.51,2.2,1.07,3.37,1.55h.02ZM741.69,158.69l.09-.3.84-.18-.06.44-.19.25-.68-.22ZM737.04,155.67c1.43,0,2.7.56,3.58,1.57-1.37-.19-2.6-.73-3.59-1.59l.03.02h-.02ZM711.52,142.68c-2.53-.61-4.93-1.53-7.16-2.73-.22-.11-.41-.27-.59-.45.36,0,.6-.06.75,0l6.98,3.17h0ZM696.16,139.01c.77.13,1.51.34,2.21.63l27.69,11.03c.75.31,1.44.75,2.15,1.15-.34,0-.67-.05-.99-.14-4.76-1.69-9.53-3.36-14.17-5.08-3.62-1.36-7.09-2.97-10.8-4.33-2.2-.8-4.25-1.92-6.11-3.29l.04.03h0ZM484.6,175.04c-1.27,6.86-2.68,13.67-4.6,20.48-.74,2.63-1.41,5.26-2.04,7.85-1.2,5.44-2.79,10.85-4.75,16.21-.83,2.36-1.66,4.74-2.43,7.07-3.33,10.55-6.72,21.06-10.47,31.54-5.06,14.21-9.93,28.44-15.44,42.57-.36.91-.89,1.85-1.28,2.68.01-.35.06-.73.14-1.09,2.55-8.77,5.3-17.51,8.22-26.25.72-2.21,1.42-4.43,2.29-6.59,1.4-3.82,2.57-7.67,3.45-11.55.85-3.54,1.82-7.08,2.88-10.59,2.51-8.21,4.56-16.6,7.85-24.74.47-1.21.84-2.44,1.15-3.69,1.73-6.24,3.82-12.43,6.3-18.55.7-1.86,1.3-3.74,1.82-5.63.82-2.69,1.6-5.42,2.28-8.16.11-.55.18-1.11.22-1.66-.55,1.17-1.01,2.35-1.42,3.55-1.71,6.22-3.8,12.4-6.26,18.49-.95,2.5-1.78,5.03-2.5,7.56-1.45,4.9-2.91,9.77-4.77,14.63-1.13,2.96-1.88,6.03-2.79,9.04-1.43,4.74-2.83,9.46-4.25,14.2-.1.25-.23.47-.39.69.09.07.08.3.06.44-.95,5.25-2.4,10.51-4.32,15.68-.22.51-.48,1.01-.77,1.5.03-.45.1-.89.18-1.33,1.37-4.89,2.76-9.78,4.16-14.67.19-.56.42-1.1.69-1.65.05-.63.14-1.28.28-1.92,3.74-13.51,7.49-27.05,11.26-40.58.99-3.6,2.22-7.2,3.4-10.77,2.06-6.2,4.2-12.38,6.3-18.55.23-.8.39-1.6.5-2.4-.47.92-.89,1.86-1.26,2.8-2.11,6.11-4.21,12.21-6.26,18.31-1.3,3.83-2.57,7.65-3.67,11.51-2.27,7.79-4.44,15.57-6.62,23.36-4.97,17.88-9.94,35.76-14.9,53.62-.52,2.19-1.42,4.34-2.65,6.34.14-.78.2-1.56.35-2.27,1.47-6.1,3.07-12.17,4.44-18.27,2.56-11.12,5.51-22.21,8.72-33.28,3.86-13.38,7.74-26.75,11.62-40.12.91-3.11,1.99-6.2,3.13-9.26,2.16-5.94,4.35-11.86,6.6-17.74,1.39-3.65,2.93-7.25,4.49-10.83.89-1.95,2.05-3.78,3.44-5.46-.06.54-.14,1.09-.26,1.63l-1.96,6.84c.15-.06.31-.14.53-.22l-.25.51c-.16.36-.3.71-.45,1.08l.24,1,.34.27c-.08,2.09-.28,4.21-.59,6.33h0ZM442.22,298.19c.5-5.13,1.27-10.29,2.3-15.46,1.01-5.26,1.82-10.54,2.76-15.79.89-4.92,1.61-9.9,2.78-14.78,1.64-7.34,3.54-14.63,5.4-21.94.88-3.46,1.89-6.92,3.02-10.36,3.14-9.8,7.02-19.47,10.76-29.13,2.4-6.21,5.26-12.31,8.54-18.24.54-.97,1.17-1.88,1.77-2.82-.01.37-.07.74-.17,1.11-2.32,6.33-4.7,12.64-6.99,18.95-1.42,3.98-2.93,8.12-4.16,12.21-2.15,7.03-4.17,14.09-6.25,21.1-4,13.76-8.14,27.51-11.5,41.33-2.48,10.11-4.81,20.25-7.22,30.36-.24,1.21-.66,2.33-1.02,3.45h-.04ZM444.22,297.46c-.47,2.61-1.21,5.22-2.18,7.77-.17.43-.39.86-.66,1.24.36-1.75.67-3.46,1.14-5.21.48-1.29,1.06-2.56,1.71-3.8h0s0,0,0,0ZM437.51,315.11c.32.59.36,1.35.12,2.1l-.12-2.1ZM439.29,316.76c.43-1.09.85-2.18,1.24-3.27.25-.77.43-1.57.65-2.34l.44-1.09.44-1.11-.32-.25c.13-.35.29-.71.43-1.06l.45-1.04.32.24c.33-.59.63-1.21.91-1.83,1.29-3.23,2.63-6.44,3.84-9.72,4.23-11.59,8.49-23.18,12.61-34.81,2.83-7.96,5.58-16,8.24-23.94,1.54-4.58,3.02-9.11,4.54-13.67,1.52-4.56,3.05-8.96,4.58-13.44.9-3.77,1.73-7.62,2.61-11.44.1-.32.25-.62.42-.92l.06-.71.42-1.01.32.24c.29-.86.55-1.73.75-2.58.57-3.16,1.09-6.32,1.65-9.49.18-.75.41-1.49.69-2.23-.1,4.34-.16,8.69-.3,13.07-.11,1.45-.3,2.9-.56,4.36.12.78.17,1.58.16,2.39-.64,7.18-1.64,14.4-3.01,21.64-2.69,13.33-6.94,26.62-12.65,39.53-.25.51-.53,1-.85,1.47.05-.36.12-.74.25-1.11,3.77-9.91,6.41-19.95,9.29-29.94,1.01-3.68,1.73-7.37,2.15-11.04.31-2.71.79-5.43,1.29-8.13.5-2.71,1.23-5.6,1.81-8.41.11-.8.18-1.59.2-2.38-.24.35-.44.74-.59,1.13-1.57,5.86-2.75,11.74-3.52,17.59-.41,3.85-1.17,7.73-2.27,11.59-1.3,4.58-2.69,9.17-3.97,13.75-3.49,11.8-7.82,23.48-12.96,34.95-.91,2.3-2.13,4.5-3.62,6.53.17-.61.35-1.21.57-1.82,1.71-4.34,3.51-8.68,5.16-13.04,3.79-9.76,7.04-19.62,9.7-29.56,3.65-13.96,6.5-27.96,9.73-41.89.11-.8.18-1.59.2-2.38-.27.8-.62,1.58-.83,2.38-.71,2.53-1.36,5.06-2.04,7.61-.39,2.23-.91,4.59-1.32,6.92-2.04,10.77-5.04,21.48-7.88,32.29-2.51,8.85-5.53,17.66-9.03,26.36-2.19,5.9-4.69,11.75-7.49,17.48-2.15,4.33-4.13,8.69-6.23,12.94-1.52,3.06-3.16,6.06-4.78,9-.55.75-1.17,1.47-1.83,2.11l-.05.07h0ZM471.58,173.24c-.74,1.58-1.63,3.12-2.65,4.57-4.63,6.59-8.41,13.68-11.21,21.04-1.51,4.13-3.41,8.17-5.28,12.23-1.67,3.56-3.06,7.2-4.15,10.87-2.26,7.8-4.53,15.58-6.81,23.35-.1.3-.23.58-.39.87,0-.85.04-1.71.15-2.58.54-3.29,1.07-6.61,1.78-9.88,2.2-11.23,6.09-22.39,11.5-33.06,4.39-8.5,9.37-16.74,14.93-24.63.8-.97,1.52-1.9,2.2-2.84l-.05.07h-.02ZM486.09,156.56c-1.43,2.62-2.65,5.05-4.06,7.37-6.06,9.87-11.13,20.21-15.12,30.82-2.22,5.89-4.44,11.65-6.59,17.49-2.56,6.97-4.7,14.02-6.42,21.1-1.09,4.51-2.24,9.03-3.41,13.55-1.72,6.49-3.08,13-4.04,19.48-.68,4.56-1.37,9.09-2.22,13.51-1.39,6.76-2.45,13.5-3.15,20.21-.36,3.43-1,6.84-1.61,10.35-.16.64-.37,1.25-.63,1.88-.1-.51-.14-1.05-.15-1.58.25-4.89.43-9.82.81-14.61,1.06-11.2,2.29-22.42,3.42-33.63.03-.7,0-1.4-.04-2.1-.29.95-.53,1.91-.68,2.87-.99,9.08-1.95,18.14-2.9,27.21-.09.82-.29,1.67-.45,2.53-.11-.7-.16-1.43-.17-2.16.35-9,.81-18.03,1.04-27.01.3-7.88,1.66-15.91,4.03-23.87,1.7-6.07,3.52-12.12,5.39-18.19.88-2.86,1.9-5.71,3.06-8.52,2.64-6.44,5.45-12.82,8.15-19.23,1.2-2.98,2.66-5.88,4.4-8.66,3.83-5.95,7.63-11.85,11.51-17.82,1-1.54,2.09-3.03,3.13-4.56-.1.74-.37,1.48-.81,2.14-1.99,3.32-4,6.65-5.97,9.99-.38.76-.71,1.54-.98,2.34.64-.82,1.29-1.66,1.78-2.6,2.84-4.68,5.64-9.36,8.5-14.04,1.05-1.78,2.55-3.29,4.26-4.32l-.04.05h-.04ZM279.02,52.64c1.65,2.67,3.26,5.35,4.95,7.99.92,1.42,2.02,2.62,2.94,4.04,4.44,6.83,8.39,14.06,11.83,21.63l2.65,5.82c-1.98-1.82-3.84-3.79-5.55-5.9-1.14-1.37-2.2-2.81-3.17-4.34-2.48-3.97-4.65-8.21-6.48-12.65-1.46-3.34-2.97-6.6-4.48-9.88-.71-1.54-1.46-3.04-2.14-4.61-.21-.69-.39-1.41-.53-2.13l-.04.05v-.02ZM276.24,45.79c.7.86,1.05,2.02.97,3.29l-.97-3.29ZM297.09,61.97c4.05,4.37,7.73,9.13,10.98,14.24,2.87,4.51,5.86,8.89,8.79,13.37,1.58,2.87,3.35,5.59,5.31,8.14,2.55,2.87,4.99,5.85,7.6,8.65,3.76,4.37,7.86,8.4,12.27,12.05l2.15,1.67-.13.17c-.58-.22-1.16-.46-1.71-.75-2.56-1.53-5.09-3.08-7.64-4.59-4.21-2.6-8.13-5.64-11.69-9.07-5.12-5.11-9.54-10.93-13.21-17.38-2.87-4.6-5.49-9.35-8.26-14.03-2.35-4.63-5.04-9.01-8.04-13.11-1.77-2.12-3.41-4.4-5.16-6.54-.47-.6-1.03-1.11-1.55-1.65.65.31,1.24.73,1.75,1.23,2.92,2.39,5.95,4.75,8.53,7.56l.03.08v-.03ZM276.43,39.35c8.03,4.62,15.37,10.23,21.93,16.75,6.67,6.5,13.06,13.35,19.35,20.26,6.21,6.79,12.01,14.02,17.36,21.62,5.21,7.39,10.65,14.36,18.09,19.38,6.74,4.23,13.94,7.76,21.52,10.55.04.08.05.18.04.28l-1-.25-.2-.15-11.72-4.56c-.9-.34-1.75-.87-2.69-1.13-.65-.09-1.28-.23-1.89-.41-1.9-.9-3.71-1.97-5.4-3.19-3.5-2.26-6.79-4.82-9.86-7.65-4.61-4.28-9.33-8.45-13.53-13.19-.78-.82-1.48-1.73-2.08-2.7-1.96-3.4-3.8-6.86-5.71-10.3-.67-1.2-1.31-2.44-2.1-3.53-2.67-3.55-5.57-6.87-8.74-9.93-2.47-2.43-4.78-5.05-7.27-7.45-3.15-3.06-6.41-5.97-9.61-8.96-2.21-2.08-4.43-4.14-6.59-6.31-1.01-.98-1.85-2.14-2.77-3.22-.27-.34-.57-.64-.89-.92-1.57-1.22-3.24-2.28-4.84-3.45l-1.94-1.51c.16-.08.32-.11.49-.13l.03.08v.02ZM284.44,47.94c3.3,2.51,6.31,5.38,8.97,8.61-2.96-2.99-6.55-5.21-9.04-8.72l.07.11ZM351.78,107.53c2.35,3.34,5.06,6.37,8.07,9.05.68.62,1.32,1.29,1.91,1.99-.52-.09-1-.29-1.42-.57-4.11-2.56-7.71-5.82-10.69-9.69-2.9-3.83-5.86-7.57-8.34-11.76-2.91-4.79-6.07-9.46-9-14.28-3.41-5.54-7.3-10.7-11.63-15.4-5.08-5.14-10.76-9.61-16.94-13.35-5.06-3.37-10.51-6.18-15.78-9.22l-2.93-1.78c.51.12,1.01.28,1.49.47,6.94,3.03,13.56,6.63,19.81,10.76,5.71,3.57,10.95,7.79,15.63,12.64,4.1,4.54,7.87,9.4,11.29,14.55,6.07,9.04,11.87,18.15,18.5,26.58h0ZM370.1,124.84c-7.1-2.72-13.72-6.34-19.73-10.79-7.2-5.59-12.16-13.47-17.56-20.88-5.4-7.41-11.62-14.45-17.94-21.22-6.33-6.76-12.33-13.28-18.95-19.37-3.81-3.48-7.87-6.64-12.19-9.46,6.09,3.46,12.15,6.9,18.15,10.5,3.91,2.4,7.47,5.31,11.16,8.05,3.02,2.11,5.76,4.58,8.16,7.4,2.8,3.42,5.45,6.98,8.04,10.51,1.09,1.5,1.97,3.21,2.94,4.82,2.87,4.5,5.82,8.93,8.57,13.53,2.9,4.57,6.07,8.91,9.47,13.01,3.49,4.05,7.67,7.36,12.41,9.83,2.58,1.39,5,2.76,7.42,4.13l.05-.07h0ZM379.34,130c-.85.07-1.68.05-2.5-.04-2.58-.43-5.13-1.01-7.69-1.48-.71-.08-1.45-.11-2.18-.1l.54.6-.89-.23c-.81-.01-1.62-.08-2.42-.19-3.2-.73-6.43-1.41-9.54-2.32-7.99-2.2-15.57-5.26-22.66-9.15-4.16-2.03-8.02-4.56-11.51-7.54-4.23-3.99-8.86-7.46-13.29-11.2-.77-.63-1.41-1.38-1.94-2.24-1.39-2.38-2.82-4.72-4-7.26-2.98-7-6.44-13.69-10.36-20-1.72-2.65-3.36-5.39-5.23-7.92-2.99-3.82-5.41-8.16-7.18-12.92-.68-1.9-1.6-3.65-2.73-5.21l-1.05-1.47c.26-.02.48.07.64.23,5.48,6.13,11.65,11.58,16.51,18.37,1.83,2.56,3.66,5.15,5.33,7.85,1.67,2.69,3.39,5.91,5.05,8.88,3.16,5.62,6.19,11.37,9.86,16.6,1.86,2.64,3.62,5.35,5.65,7.84,5.05,6,10.96,11.11,17.59,15.21,3.51,2.38,7.27,4.39,11.24,6.01,4.4,1.57,8.83,3.06,13.29,4.52.88.48,1.95.59,3.04.3-.72-.3-1.48-.7-2.17-.89l-4.3-1.45s-.04-.1-.07-.13-.09-.05-.14-.04l-2.6-.9c-5.98-2.11-11.27-5.53-15.56-10.07-3.82-4.11-7.49-8.34-11.31-12.45-3.14-3.38-5.93-7.12-8.3-11.18-2.56-4.38-5.59-8.45-8.17-12.74-3.84-6.11-8.14-11.85-12.84-17.19-.35-.4-.69-.84-1.02-1.28,2.32,1.98,4.62,3.95,6.77,6.09,2.97,2.96,5.9,5.92,8.64,9.11,2.63,2.98,5.08,6.15,7.34,9.48,1.85,2.83,3.28,6.2,4.98,9.23.88,1.68,1.93,3.22,3.13,4.63,2.28,2.6,4.68,5.12,7.18,7.55,3.48,3.34,7.06,6.55,10.66,9.74,7.18,6.4,16.06,9.71,25.17,12.75l.34.08c1.93.67,3.96,1.12,6.07,1.36l.53.21,2.1.99h0ZM363.01,51.73c1.7,2.25,3.55,4.35,5.05,6.76,2.37,3.79,4.45,7.8,6.74,11.67,2.28,3.87,3.78,8.18,6.56,11.52.64.77,1.18,1.6,1.75,2.45,2.58,4.01,5.78,7.47,9.5,10.28,6.47,4.82,13.53,8.83,21.06,11.98,5.24,2.11,10.51,4.19,15.75,6.28l.72.3c-.2.27-.52.4-.78.32-4.29-.49-8.43-1.46-12.33-2.91-5.57-2.39-11.16-4.76-16.76-7.09-5.34-2.41-10.15-5.69-14.3-9.76-4.29-4.02-7.79-8.9-10.36-14.45-3.95-8.15-7.72-16.49-11.57-24.74-.47-.8-.76-1.68-1.08-2.55l.05-.07h0ZM366.03,52.22c3.97,5.31,8,10.82,11.97,16.26,2.42,3.27,4.83,6.59,7.29,9.82,2.47,3.23,4.66,6.15,7.16,9.03,3.84,3.99,8.07,7.53,12.67,10.58,5.9,4.4,12.51,7.81,19.65,10.16,1.46.44,2.83,1.07,4.27,1.54,3.08,1,6.2,1.92,9.31,2.88,1.25.39,2.5.85,3.75,1.26-2.93.52-5.78.33-8.34-.57-5.1-1.93-10.07-4.1-15.21-5.96-6.33-2.36-12.37-5.27-18.07-8.72-6.5-3.54-12.05-8.48-16.37-14.59-2.54-3.38-4.74-7.05-6.58-10.97-.54-1.22-1.15-2.38-1.83-3.48l-4.76-8.03c-1.15-1.94-2.25-3.9-3.5-5.75-1.24-1.85-2.43-3.19-3.6-4.8-.59-.78-1.08-1.65-1.61-2.5,1.34,1.15,2.57,2.45,3.67,3.86l.11-.03h0ZM377.7,56.44c4.95,5.49,9.93,10.93,14.86,16.46,6.81,7.84,14.38,14.9,22.63,21.09,4.77,3.5,9.36,7.26,14.58,10.19,4.49,2.56,9.06,5,13.61,7.48l1.97,1.09c-.8.19-1.59.19-2.33.02-3.1-.62-6.06-1.58-8.84-2.88-.72-.28-1.44-.54-2.19-.74l.07.45-.43-.08c-2.64-.91-5.33-1.73-7.96-2.79-2.93-1.15-5.83-2.39-8.59-3.82-4.98-2.73-9.69-5.87-14.08-9.42-5.17-3.94-9.73-8.65-13.57-14.01-4.09-5.71-8.27-11.32-12.48-16.94-2.25-3.05-4.73-5.91-6.93-8.98-2.11-3-4.59-5.64-7.41-7.9-.46-.36-.8-.85-1.21-1.27.94-.02,1.79.25,2.47.78,4.91,3.81,9.47,8.07,13.65,12.73,1.39,1.42,2.68,2.93,3.87,4.56,2.37,3.41,4.62,6.93,6.88,10.42,1.89,3.17,4.1,6.09,6.59,8.72,1.14,1.14,2.33,2.05,3.45,3.11,2.68,2.51,5.31,5.11,8,7.6,1.3,1.21,2.69,2.29,4.19,3.25,6.57,4.16,13.11,8.35,20.02,11.99.65.27,1.32.48,2.01.64-.47-.42-.96-.8-1.49-1.16-4.5-2.68-9.02-5.32-13.54-7.97-4.05-2.22-7.82-4.84-11.28-7.86-2.58-2.44-5.05-4.97-7.7-7.32-4.73-4.36-8.76-9.51-11.96-15.31-4.03-6.98-9.11-13.1-15.09-18.19-.67-.52-1.25-1.15-1.86-1.75s-1.13-1.15-1.61-1.68c4.28,2.67,8.18,5.86,11.66,9.54l.04-.05h0ZM388.2,60.25c2.3,3,4.32,6.27,6.53,9.35,2.21,3.09,4.2,5.79,6.4,8.61,2.98,3.54,6.18,6.87,9.57,9.96,1.43,1.37,2.95,2.63,4.54,3.79,2.86,2.08,5.88,3.93,8.71,6.02l7.51,5.83c-1.48-.82-3.03-1.54-4.4-2.49-3.8-2.68-7.57-5.42-11.3-8.19-3.72-2.76-7.35-5.71-10.7-8.96-8.06-7.65-15.08-16.37-22.7-24.48-2.42-2.8-5.01-5.41-7.79-7.8-1.59-1.24-3.1-2.6-4.63-3.92,5.18,1.58,9.85,4.2,13.78,7.74,1.6,1.39,3.09,2.92,4.43,4.58l.05-.07h0ZM454.83,114.37c-1.87.25-3.68.03-5.26-.66-2.87-1.12-5.58-2.55-8.07-4.29-3.96-2.71-7.97-5.37-11.91-8.12-2.9-2.01-5.66-4.21-8.57-6.2-3.63-2.33-7.05-4.95-10.25-7.83-5.39-5.12-10.26-10.81-14.58-16.98-3.27-4.6-6.08-9.64-9.93-13.7,5.34,3.51,10.08,7.82,14.12,12.84,3.05,3.89,5.97,7.67,9.08,11.39,5.24,6,10.84,11.64,16.78,16.86,6.3,5.69,13.58,10.18,21.59,13.33,2.27,1,4.4,2.17,6.96,3.43l.05-.07h0ZM495.43,113.17c-.2.07-.38.12-.57.14-5.63.47-11.24.96-16.84,1.33-1.58,0-3.15-.09-4.68-.29h-.22s.22-.02.22-.02c.75-.27,1.51-.48,2.27-.61,4.33-.35,8.58-.78,12.86-.92,2.34,0,4.64.15,6.92.41l.05-.07h0ZM516.71,90.38c4.56,4.01,9.44,7.65,14.59,10.88,1.18.73,2.24,1.59,3.37,2.38-4.11-1.58-8.05-3.48-11.78-5.69-5.92-3.74-11.42-8.09-16.46-12.95-7.24-6.67-13.77-14.13-19.54-22.28-4.33-6.26-7.73-13.27-10.1-20.89-2.09-6.42-3.63-13.13-5.52-19.67-.88-3.05-1.98-5.98-2.96-8.97l-.99-3.11c.74.79,1.44,1.64,2.07,2.55,1.68,2.68,3.33,5.41,4.94,8.17,2.83,4.62,4.97,9.76,6.35,15.29.87,3.57,2,7,3.41,10.27,1.46,3.4,3.14,6.65,5.04,9.72,3.38,6.11,7.18,11.89,11.37,17.31,4.95,6.12,10.36,11.82,16.17,17.04l.05-.07h0ZM484.97,71.48c9.78,9.27,19.98,18.04,30.37,26.58-.46.02-.89-.08-1.26-.27-5.32-2.42-10.28-5.43-14.85-8.99-6.07-4.39-10.94-10.25-14.31-17.26l.05-.07h0ZM466.69,19.4c1.5,2.72,2.64,5.69,3.39,8.86.36,1.28.58,2.64.85,3.96-.15-.03-.29-.1-.39-.2s-.17-.24-.21-.4c-1.21-3.47-2.32-7.08-3.43-10.65-.15-.5-.26-1.02-.31-1.56l.12-.02h-.02ZM466.03,17.19l.65,2.21c-.28-.23-.49-.56-.61-.94s-.16-.8-.1-1.22l.05-.07v.03ZM461.65,2.77c1.19,1.61,2.28,3.31,3.27,5.07,2.34,4.46,4.2,9.24,5.57,14.29.93,4.02,2.18,8.04,3.13,12.13,1.78,7.42,4.36,14.44,7.68,20.95,2,4.08,4.4,7.86,7.18,11.31,2.1,2.52,3.98,5.04,6.08,7.44,2.78,3.15,5.57,6.28,8.57,9.18,3.27,3.15,6.76,5.99,10.21,8.94,4.42,3.97,9.37,7.27,14.79,9.8.98.51,1.91,1.09,2.8,1.74-.43,0-.84-.05-1.24-.13-2.07-.64-4.1-1.37-6.17-2-2.68-.88-5.08-2.3-7.12-4.15-1.94-1.51-3.78-3.19-5.69-4.74-3.34-2.37-6.49-5-9.43-7.84-1.15-1.27-2.43-2.39-3.83-3.35-2.82-1.99-5.44-4.27-7.81-6.81l-5.18-5.36c-1.48-1.42-2.63-3.18-3.42-5.19-1.58-4.5-3.19-8.94-4.71-13.54-.9-2.78-1.62-5.74-2.24-8.58-1.22-5.04-2.39-10.11-3.61-15.14-.21-.81-.47-1.59-.78-2.34l-7.45-18.32c-.56-.94-.81-2.11-.69-3.36l.12-.02-.04.03ZM477.08,18.91c2.6,4.26,5.29,8.45,7.49,13,3.26,6.73,6.62,13.37,10.52,19.64,4.3,6.93,8.34,14.09,12.74,20.91,1.95,3.12,4.12,6.07,6.5,8.81,3.93,4.49,8.05,8.78,12.16,13.02,1.82,1.89,3.8,3.6,5.9,5.14,3.32,2.39,6.8,4.57,10.2,6.83-1.76-.15-3.37-.75-4.71-1.75-2.33-1.48-4.57-3.09-6.91-4.55-6.58-4.05-12.63-8.84-18.1-14.3-4.56-4.55-8.74-9.61-12.96-14.42-1.19-1.42-2.3-2.93-3.28-4.54-2.48-3.98-4.89-8.01-7.29-12.07-3.63-6.11-6.37-12.87-8.16-20.13-.65-2.58-1.52-5.05-2.61-7.38-3.16-6.98-7.09-13.43-11.71-19.24-.92-1.13-1.73-2.36-2.59-3.57.31.03.59.17.8.38,4.46,4.24,8.44,8.99,11.89,14.21l.12-.02v.02ZM477.94,15.34c.34.27.58.63.85.97,1.14,1.37,2.29,2.74,3.38,4.14,2,2.64,4.21,5.22,6.01,8.09,6.54,10.65,12.46,21.8,17.74,33.37,2.95,6.27,6.66,11.98,11.06,17.04,1.89,2.21,3.98,4.23,5.97,6.34,4.8,5.14,9.9,9.95,15.3,14.41,2.36,2.12,4.97,3.95,7.78,5.48,1.42.85,2.76,1.8,4.02,2.85-1.84.02-3.57-.45-5.02-1.36-2.77-1.65-5.55-3.27-8.31-5.13-3.38-2.06-6.51-4.49-9.34-7.25-3.77-3.95-7.51-7.96-11.28-11.91-2.78-3.03-5.29-6.35-7.49-9.92-2.52-3.85-4.9-7.83-7.21-11.84-3.93-6.78-7.93-13.5-11.56-20.48-3.65-6.99-6.96-13.85-11.22-20.18-2.16-3.5-4.6-6.79-7.28-9.81-1.13-1.15-1.98-2.41-2.98-3.61l.25-.33,1.19,1.07,8.14,8.07h0ZM485.65,19.39c3.49,3.84,6.59,8.07,9.24,12.66,2.72,4.32,4.94,8.92,7.4,13.36,2.6,4.71,5.11,9.47,7.72,14.17,1.89,3.37,4.08,6.49,5.77,9.96,3.98,8.09,9.04,15.38,15.05,21.71,1.5,1.62,3,3.2,4.53,4.78-2.28-1.9-4.58-3.79-6.65-5.87-5.29-4.9-10.17-10.28-14.57-16.09-1.86-2.64-3.72-5.28-5.37-8.08-1.28-2.18-2.15-4.67-3.32-6.92-4.13-7.87-7.71-16.14-12.33-23.68-2.19-4.2-4.76-8.13-7.65-11.74-1.56-1.74-3.01-3.62-4.4-5.52-1.4-1.9-3-3.6-4.79-5.09-1.38-1.07-2.44-2.53-3.65-3.79l.22-.28c.27.1.51.22.76.36,4.36,2.88,8.37,6.26,11.94,10.1l.12-.02h-.02ZM498.07,28.03c1.85,2.83,3.61,5.55,5.32,8.4,1.93,2.89,3.57,6.01,4.91,9.32,3.47,9.97,8.21,19.17,14.09,27.42l11.59,16.03c.71.98,1.33,2.06,2.11,2.98,2.59,3.02,5.24,6,7.88,8.97.61.71,1.26,1.35,1.89,2.03l-.18.24c-3.01-2.57-6.2-5.05-8.99-7.74-3.14-3.05-6.16-6.28-9.07-9.57-2.95-3.37-5.55-7.1-7.77-11.12-1.42-2.63-2.8-5.3-4.28-7.86-2.88-4.95-5.86-9.83-8.42-15.02-2.35-4.79-5.09-9.49-7.64-14.26-4-7.63-8.89-14.59-14.58-20.74-.22-.17-.34-.45-.53-.67,1.95.93,3.79,2.05,5.51,3.33,3.2,2.21,5.95,4.99,8.19,8.26h0ZM543.55,98.88l7.96,7.25c-3.55-1.29-5.37-4.66-7.91-7.2l-.05-.04ZM522.42,65.3c-1-1.21-1.67-2.69-1.98-4.36.99,1.23,1.68,2.74,2.02,4.41l-.05-.04h.02ZM533.56,86.64c-.68-.62-1.28-1.3-1.83-2.05-1.95-2.71-3.84-5.35-5.72-8.08-2.7-3.98-5.55-7.85-8-12.02-3.4-6.01-6.32-12.36-8.71-19.03-.57-1.71-1.28-3.33-2.11-4.86-2.28-3.87-4.67-7.64-7.02-11.45-.28-.45-.46-.97-.87-1.8,3.94,3.22,7.19,7.25,9.62,11.92,2.35,4.35,4.55,8.82,6.77,13.26,1,2.02,1.85,4.15,2.82,6.22,1.71,3.57,3.42,7.13,5.15,10.68.26.42.58.81.92,1.16.5.91.97,1.87,1.5,2.79l7.47,13.27h0ZM631.87,121.39c1.77-.19,3.46.03,4.97.66,4.01.41,7.88,1.24,11.58,2.45-1.36-.03-2.69-.14-4.01-.34-2.57-.55-5.02-1.36-7.6-1.95l-4.95-.82h0ZM547.87,134.49c1.63-.72,3.32-1.03,4.91-.9-1.62.8-3.32,1.16-4.91,1.02v-.12ZM544.96,135.16c.33-.29.71-.5,1.1-.61s.78-.1,1.12.02l-2.22.59h0ZM509.9,144.38c.18-.13.37-.26.57-.35l11.2-2.35c-.39.24-.79.44-1.2.59-3.52,1.29-7.08,2.03-10.59,2.22v-.12s.02,0,.02,0ZM471.31,156.02c3.21-1.99,6.65-3.32,10.08-3.88l1.6-.46c-.23.22-.5.39-.78.48s-.56.11-.82.03c-3.22,1.28-6.47,2.6-9.69,3.86-.13.08-.27.1-.39.09v-.12s0,0,0,0ZM458.18,155.6c-2.26.69-4.53.97-6.72.83-2.85-.15-5.74-.18-8.59-.37-2.54-.11-5.05-.35-7.51-.74-6.83-1.14-13.52-2.71-20-4.7-5.55-1.86-11.53-2.71-17.74-2.51-2.29.11-4.59.11-6.88.18l-1.43.02c.61-.38,1.28-.6,1.92-.65,11.02-1.31,21.77-.75,31.86,1.67,5.86,1.29,11.75,2.46,17.77,3.17.73.02,1.47,0,2.22-.09-.81-.26-1.63-.49-2.47-.65-4.89-.52-9.67-1.37-14.33-2.56-5.02-1.45-10.26-2.35-15.66-2.66-2.63-.16-5.22-.45-7.83-.69-.4-.06-.78-.17-1.14-.3.9-.17,1.8-.36,2.69-.44,4.4-.38,8.74-.4,12.99-.07,6.64.54,13.11,1.61,19.39,3.21,5.44,1.34,10.91,2.61,16.37,3.89.33.09.64.22.93.36l-2.29.63c.7.14,1.42.25,2.14.32,2.95,0,5.93-.05,8.89-.03.62.03,1.23.12,1.81.27-2.15.83-4.35,1.35-6.42,2.06v-.12s0-.04,0-.04ZM379.2,154.38c-.31-.22-.67-.32-1.07-.34s-.81.08-1.21.26l-1.24-.53c.59-.23,1.18-.42,1.78-.57,3.26-.49,6.5-.64,9.64-.46,2.42.05,4.85-.02,7.29-.15,3.76-.25,7.43-.02,10.94.69,2.43.51,4.9.91,7.34,1.35,2.8.53,5.62,1.03,8.41,1.6.66.17,1.3.39,1.91.67-.43.09-.84.12-1.26.11-4.89-.45-9.76-.95-14.68-1.4-2.44-.21-4.89-.45-7.34-.61-3.88-.22-7.8-.37-11.73-.53-.67,0-1.34.08-2.03.18.46.17.94.31,1.43.4,2.62.23,5.23.42,7.85.61,4.77.37,9.59.69,14.32,1.1,6.16.55,12.32,1.18,18.48,1.82.74.12,1.47.3,2.17.55-.65.06-1.32.15-1.95.17-7.4.15-14.81.36-22.19.42-2.52.07-4.99-.07-7.39-.45-6.59-1.15-13.1-2.54-19.64-3.84-.45-.13-.87-.29-1.27-.5l1.41-.53.03-.02ZM376.54,152.31c2.83-1.45,5.78-2.33,8.69-2.59,4.46-.27,8.9-.41,13.34-.56,5.36-.16,10.54.54,15.35,2.09,6.14,1.94,12.51,3.3,18.89,4.63.75.15,1.45.42,2.2.64-.43.12-.86.2-1.29.25-3.5.07-6.92-.23-10.21-.89-3.47-.75-6.89-1.36-10.35-2.04-2.36-.45-4.78-.81-7.06-1.33-3.68-.83-7.56-1.09-11.54-.78-2.31.15-4.59.2-6.85.17-3.23-.17-6.52,0-9.86.53-.45.05-.89.03-1.32-.03l-.03-.08.03-.02ZM442.36,157.68c.26.04.5.14.71.3-.2.1-.41.17-.62.22-4.45.46-8.83.33-13.02-.35-.17-.08-.31-.19-.43-.34l13.37.17ZM376.88,293.96c2.78-3.82,5.67-7.49,8.54-11.14,3.2-4.12,6.59-8.12,9.7-12.31,4.42-5.96,8.69-12.04,13.01-18.12,9.22-12.99,17.76-26.4,26.28-39.81,4.89-7.68,9.25-15.68,14.35-23.19,3.19-5.09,6.07-10.35,8.62-15.72.46-.85,1.03-1.73,1.47-2.53-1.93,5.65-4.27,11.23-6.99,16.68-.28.62-.51,1.23-.7,1.87-.29.32-.56.67-.8,1.03-1.72,3.11-3.45,6.25-5.2,9.3-.19.47-.34.93-.44,1.42.54-.9,1.05-1.72,1.63-2.7,1.42-2.41,2.83-4.79,4.22-7.19-.02.36-.09.75-.2,1.11-1.5,3.92-2.85,7.8-4.47,11.64-3.76,8.72-8.28,17.21-13.47,25.33-5.71,9.35-12.07,18.33-19.02,26.85-5.96,7.16-12.23,14.03-18.8,20.59l-.25.12c3.1-4,6.15-7.93,9.09-11.9,5.01-6.86,10.04-13.72,15.29-20.42,6.1-8.03,11.72-16.4,16.79-25.07.39-.76.74-1.55,1.02-2.34-.53.68-1.07,1.38-1.52,2.15-3.57,5.46-7.11,10.97-10.72,16.42-2.78,4.21-5.96,8.08-9.08,12.1-3.42,4.41-6.65,8.96-10,13.41-3.87,5.18-7.73,10.36-11.75,15.42-2.51,3.21-5.19,6.28-8.04,9.18-2.7,2.9-5.7,5.33-8.59,7.95v-.12s.03,0,.03,0ZM365.38,304.81c.72-1.13,1.21-1.94,1.75-2.72,3.44-5.14,7.22-10.07,10.5-15.33,4.01-6.45,8.36-12.71,12.69-18.95,3.59-5.26,7.27-10.46,10.98-15.66,2.73-3.8,5.56-7.54,8.35-11.29,4.41-6,8.76-12.02,13.21-18,4.44-5.98,8.4-11.61,12.36-17.59,5.26-7.99,10.6-15.9,15.93-23.83.93-1.34,1.99-2.56,2.99-3.85.06.15.07.33.05.51-.02.18-.07.37-.16.54-2.32,4.62-4.93,9.12-7.8,13.47-1.95,2.85-3.76,5.79-5.55,8.72-2.11,3.45-3.97,6.88-6.07,10.26-4.1,6.5-8.24,12.99-12.5,19.4-5.97,8.9-12.01,17.77-18.11,26.57-3.86,5.51-7.89,10.93-11.94,16.28-3.37,4.35-6.86,8.6-10.19,12.98-4.95,6.67-10.46,12.92-16.43,18.61v-.12s-.02,0-.02,0ZM452.72,178.02c-3.62,5.24-7.33,10.42-10.91,15.69-6.46,9.61-12.62,19.38-19.64,28.66-7.54,9.95-14.9,20.04-22.12,30.19-6.62,9.29-13,18.74-19.38,28.14-2.93,4.3-5.65,8.75-8.48,13.12-.4.57-.83,1.13-1.29,1.66-.01-.45.12-.92.37-1.34,7.37-12.73,14.61-25.5,22.87-37.79,4.28-6.38,8.39-12.87,12.73-19.22,3.64-5.32,7.58-10.48,11.27-15.76,5.56-7.99,11.54-15.69,17.9-23.06,2.63-3.05,5.02-6.26,7.54-9.38,3.31-4.08,6.62-8.14,9.95-12.22-.24.52-.53,1-.85,1.47l.04-.17h0ZM398.63,220.16c-5.16,7.56-10,15.33-14.45,23.28,3.74-8.24,8.61-16.06,14.43-23.17v-.12s.02,0,.02,0ZM441.63,176.39c-.1.45-.35.87-.71,1.17-5.01,5.23-9.71,10.78-14.05,16.6l-8.14,10.49c-4.14,5.33-8.48,10.47-12.25,16.05-3.77,5.58-7.67,11.04-11.38,16.56-4.04,6.32-7.63,12.88-10.73,19.62-5.04,10.31-9.94,20.63-14.86,30.98-.45.95-.98,1.77-1.56,2.73l-.45,1.1c-.04.44-.17.88-.36,1.3-.2.42-.47.81-.8,1.16l.1-1.35-.81.31c1.18-4.89,2.65-9.78,4.39-14.6,2.65-6.89,5.34-13.74,8.08-20.55.71-1.77,1.5-3.54,2.36-5.26,5.27-10.59,11.28-20.87,17.96-30.76,4.71-7.17,10.14-13.88,16.15-19.97,2.11-2.13,4.28-4.3,6.37-6.33,4.93-4.77,9.89-9.53,14.88-14.26.33-.28.69-.52,1.05-.7l4.77-4.28h-.02ZM457.63,164.6l.13.24c-3.43,3.89-6.87,7.81-10.28,11.71,2.91-2.69,5.62-5.61,8.1-8.71,1.81-2.43,4.02-4.51,6.49-6.11l.26.43c-1.27,1.56-2.44,3.21-3.47,4.92-.06.1-.09.21-.1.32,0,.11.01.21.07.29-1.23,1.58-2.25,3.18-3.33,4.8-3.85,4.83-7.71,9.65-11.59,14.44-4.67,5.81-9.36,11.56-14.05,17.35-1.23,1.58-2.77,3.24-4.02,4.94-5.35,7.29-10.78,14.49-15.87,21.92-7.05,10.29-13.88,20.71-20.69,31.12-7.21,11.04-13.46,22.56-19.92,33.93-1.66,2.95-3.34,5.86-5.02,8.81.09-.44.25-.88.42-1.3,1.19-2.33,2.38-4.69,3.62-7,4.62-8.56,9.24-17.13,13.77-25.76,2.55-5.28,5.34-10.46,8.33-15.56,3.42-5.35,6.81-10.71,10.38-15.98,8.1-12.21,16.67-24.09,25.5-35.83.88-1.13,1.56-2.39,2.33-3.58-.64.64-1.25,1.33-1.83,2.04-3.62,4.81-7.36,9.73-10.94,14.67-7,9.68-13.91,19.43-20.36,29.46-3.52,5.2-6.81,10.55-9.84,16.02-4.74,9.03-9.43,18.08-14.19,27.08-2.18,4.11-4.52,8.2-6.81,12.29.17-.83.41-1.66.71-2.47,2.75-6.14,5.49-12.3,8.35-18.35,5.01-10.79,10.1-21.55,15.84-32.05,2.28-4.17,4.67-8.28,7.27-12.29,3.22-4.97,6.74-9.76,10.08-14.66,2.86-4.19,5.85-8.17,9.07-12.15,3.21-3.99,6.15-7.93,9.29-11.97,4.71-6.33,9.78-12.39,15.16-18.13,1.39-1.46,2.86-2.87,4.19-4.36,3.43-3.71,7.3-6.93,11.46-9.55.46-.33,1.03-.63,1.57-.94l-.04-.03h-.03ZM451.63,163.89c.32-.26.64-.5.99-.68,3.58-1.58,7.17-3.16,10.74-4.71.34-.1.68-.15,1.01-.14-2.58,1.29-5.15,2.68-7.77,3.85-1.64.66-3.29,1.23-4.94,1.7l-.04-.03h0ZM400.95,189.69l2.16-1.17c-.62.64-1.39,1.06-2.16,1.17ZM390.59,194.98c2.99-1.79,6.03-3.44,9.11-4.94.34-.14.67-.22,1.01-.26-2.9,1.57-5.81,3.14-8.72,4.71-.46.2-.92.37-1.38.5l-.03-.02v.02ZM368.66,208.69c.12-.56.1-.85.22-1.01.2-.19.42-.34.65-.45l.18.27c-.25.33-.52.65-1.03,1.21l-.03-.02h0ZM352.01,235.06c-2.46,3.17-5.2,6.3-7.63,9.55-3.44,4.51-7.14,8.81-11.08,12.86-5.26,5.49-10.4,11.11-15.49,16.75-3.4,3.86-6.95,7.56-10.63,11.1-2.99,2.77-5.93,5.55-8.88,8.34-2.29,2.17-4.56,4.39-6.83,6.55l-.23-.17c5.31-5.82,10.55-11.66,15.92-17.41,2.64-2.86,5.5-5.49,8.21-8.25,5.32-5.43,10.53-10.96,15.48-16.76,5.26-6.07,11.18-11.64,16.26-17.86,2.61-3.22,5.29-6.41,7.95-9.59.37-.47.83-.88,1.26-1.34-1.2,2.22-2.64,4.33-4.27,6.26l-.03-.02h0ZM276.31,315.66c3.65-3.79,7.49-7.27,11.3-10.79,3.82-3.51,7.89-7.27,11.79-10.94,1.99-1.86,3.92-3.82,5.83-5.63,1.72-1.64,3.56-3.16,5.19-4.89,2.77-2.94,5.35-6,8-8.85,4.99-5.39,9.96-10.8,15.07-16.07,3.91-3.96,7.58-8.18,10.97-12.63,1.7-2.19,3.51-4.32,5.3-6.46-.37.83-.8,1.64-1.29,2.42-2.9,4.15-5.59,8.37-8.8,12.32-5.17,6.4-10.57,12.64-16.03,18.8-7.33,8.05-15.05,15.68-23.11,22.87-5.21,4.88-10.61,9.49-16.17,13.83-2.6,2-5.3,3.99-7.98,5.97h-.05s-.02.04-.02.04ZM262.76,324.66c1.87-2.02,3.81-3.96,5.75-5.87,4.66-4.57,9.55-8.84,13.89-13.78,5.32-6.02,10.65-12.06,16.1-17.98,5.71-6.19,11.52-12.24,17.31-18.31,4.54-4.73,9.22-9.28,13.73-14.01,2.58-2.67,5.07-5.44,7.58-8.18,3.39-3.72,6.8-7.43,10.14-11.21,2.04-2.22,3.96-4.55,5.75-6.96,3.97-5.23,8.29-10.18,12.93-14.78-1.54,2.57-2.97,5.19-4.61,7.68-1.25,1.83-2.58,3.61-3.99,5.32-2.81,3.63-5.64,7.27-8.67,10.73-5.32,6.02-10.95,12.04-16.43,18.05-2.25,2.49-4.49,5-6.76,7.46-2.27,2.46-4.9,5.37-7.42,7.96-5.28,5.46-10.65,10.83-15.91,16.32-7.21,7.54-14.32,15.15-21.51,22.72-.55.57-1.12,1.12-1.73,1.63-3.61,3.05-7.17,6.14-10.82,9.15-1.66,1.53-3.44,2.91-5.29,4.09l-.03-.02-.02-.03ZM265.18,315.95c.29-.52.51-1.07.83-1.57,2.78-4.29,5.51-8.64,8.4-12.88,3.97-5.97,8.28-11.71,12.9-17.19,2.19-2.54,4.37-5.11,6.56-7.61,4.37-4.99,8.72-10.03,13.17-14.91,2.63-2.87,5.51-5.48,8.26-8.19.82-.81,1.6-1.65,2.44-2.43,4.32-4.01,8.64-8.03,12.99-11.96,2.87-2.6,5.75-5.13,8.73-7.57,3.56-2.95,7.22-5.74,10.79-8.68,3.24-2.57,6.47-5.35,9.74-7.94,1.14-1.07,2.47-1.88,3.85-2.35-1.73,1.56-3.11,2.67-4.33,3.88-5.18,5.17-10.6,10.05-15.93,15.04-6.43,6.02-12.76,12.16-18.84,18.57-12.97,13.63-26.22,27-38.51,41.22-3.47,4-7.06,7.93-10.55,11.96-1.96,2.26-3.82,4.66-5.73,6.99l-4.6,5.68-.16-.05h0ZM266.87,315.79c3.47-4.24,6.89-8.55,10.44-12.73,3.2-3.79,6.51-7.47,9.82-11.17,4.8-5.33,9.62-10.61,14.47-15.86,2.53-2.74,5.19-5.31,7.69-8.06,9.71-10.71,19.82-20.9,30.11-30.98.49-.49,1.03-.96,1.49-1.38,4.57-4.27,9.14-8.54,13.68-12.8,1.97-1.87,3.96-3.77,5.89-5.58l.09.07-3.39,4.37c-6.33,7.43-12.9,14.6-19.66,21.59-12.41,12.83-24.8,25.65-37.19,38.5-1.15,1.21-2.35,2.39-3.54,3.61-9.01,9.33-18.02,18.68-27.02,28.04-1.52,1.59-3.02,3.19-4.53,4.79.47-.85,1.02-1.65,1.64-2.4l-.03-.02h.02ZM258.8,327.3c.46-1.06,1.11-2.04,1.91-2.88,2.71-2.99,5.51-5.88,8.07-8.8,3.6-4.14,7.44-8.04,11.29-11.94,8.68-8.81,17.26-17.72,25.85-26.6,10.57-10.91,21.12-21.83,31.68-32.76.27-.35.64-.62.95-.91l.16.13c-3.01,3.34-5.96,6.77-9.08,10.02-6.5,6.74-13.15,13.34-19.64,20.08-4.11,4.25-8.09,8.65-12.11,13.01-5.11,5.62-10.15,11.35-15.29,16.93-3.23,3.52-6.56,6.95-9.98,10.26-4.13,4.11-8.33,8.13-12.52,12.12-.38.54-.82.94-1.25,1.37l-.03-.02h0ZM261.7,316.52c7-11.55,14.9-22.6,23.59-33l5.69-7.02c2.61-3.22,5.12-6.6,7.9-9.66,6.5-7.24,13.36-14.13,20.52-20.61,3.43-3,6.68-6.27,10.15-9.21,4.99-4.26,10.05-8.42,15.17-12.48,6.08-4.99,12.37-9.62,18.84-13.85.98-.63,1.99-1.23,2.98-1.83-.01.3-.11.6-.24.88-.14.29-.33.56-.55.78-.55.46-1.12.87-1.72,1.2-3.19,2.01-6.26,4.28-9.19,6.79-3.83,3.18-7.74,6.21-11.6,9.37-3.85,3.16-7.86,6.39-11.65,9.78s-7.54,7.12-11.38,10.61c-5.99,5.4-11.73,11.13-17.16,17.16-1.65,1.85-3.2,3.79-4.89,5.6-7.45,7.91-14.42,16.32-20.84,25.13-5.33,7.19-10.19,14.71-14.53,22.48-1.94,3.51-4.33,6.79-7.09,9.73.02-.22.07-.45.15-.66,1.84-3.66,3.69-7.52,5.84-11.15l-.03-.02h.03ZM350.25,218.05c1.53-1.02,3.14-1.85,4.78-2.48-3.07,2.47-6.18,4.8-9.25,7.22-4.57,3.62-9.17,7.24-13.65,11-3.17,2.62-6.33,5.55-9.43,8.41-4.79,4.1-9.4,8.45-13.81,13.02-1.92,2.09-3.98,4.02-5.89,6.09-2.82,3.04-5.73,6.05-8.35,9.25-5.1,6.2-10.09,12.5-14.91,18.71-3.51,4.53-6.87,9.22-10.3,13.85-.83,1.07-1.66,2.13-2.37,3.24.24-.65.52-1.28.82-1.9,9.05-16.05,19.92-31.17,32.31-44.94,7.21-7.92,14.93-15.3,23.08-22.07,8.67-7.03,17.68-13.49,26.96-19.36h0s.02-.05.02-.05ZM297.29,237.42c2.32-.91,4.67-1.89,7-2.7,15.44-5.41,30.78-11.67,45.93-18.78.56-.24,1.13-.43,1.69-.59-1.3.93-2.63,1.78-3.99,2.55-2.16,1.11-4.38,2.08-6.6,3-9.96,4.12-19.94,8.18-29.85,12.39-4.29,1.76-8.64,3.12-13,4.08-.39.06-.77.09-1.15.07h0s0-.03,0-.03ZM264.02,260.66c1.65-2.92,3.73-5.61,6.15-7.93l-6.15,7.93ZM263.05,258.77c-3.42,3.7-6.91,7.34-10.26,11.11-5.52,6.25-11.48,12.01-17.44,17.77-4.24,4.09-8.63,8.03-12.97,11.99-3.25,2.96-6.46,5.95-9.83,8.75-5.26,4.35-10.64,8.48-15.96,12.75-4.3,3.59-8.76,6.92-13.35,9.96-.49.31-.98.56-1.46.84.88-1.22,1.9-2.34,3.05-3.3,2.51-2.2,5.05-4.35,7.55-6.55,4.36-3.8,8.69-7.63,13.04-11.43,3.82-3.36,7.72-6.71,11.31-10.3,4.25-4.23,8.67-8.26,13.24-12.06,5.88-4.83,11.51-10.02,16.86-15.54.98-1.02,1.95-2.07,2.99-3.02,6.55-6.12,13.14-12.23,19.7-18.34l.18.14c-2.15,2.44-4.33,4.75-6.61,7.21h0s-.02.02-.02.02ZM193.38,328.03c.39-.42.81-.8,1.24-1.14,4.49-3.18,9.1-6.28,13.69-9.32,2.56-1.56,5.01-3.37,7.31-5.4,1.5-1.49,3.06-2.91,4.69-4.24,3.33-2.69,6.48-5.66,9.4-8.86,3.3-3.59,6.64-7.12,9.92-10.7,4.65-5.1,9.3-10.21,13.85-15.38,3.49-3.95,6.87-8,10.3-12.02-.05.22-.14.43-.25.64-6.02,9.66-13.01,18.74-20.82,27.03-2.46,2.54-4.97,5.03-7.52,7.45-3.77,3.57-7.57,7.15-11.4,10.61-8.16,7.04-16.81,13.34-25.81,18.77-1.53,1-3.08,1.76-4.6,2.58h0s0,0,0,0ZM178.34,335.26c.8-.57,1.62-1.13,2.43-1.7,3.83-2.67,7.73-5.17,11.46-8.03,6.15-4.69,12.2-9.57,18.25-14.47,3.32-2.67,6.57-5.49,9.77-8.37,3.84-3.46,7.55-7.13,11.42-10.57,5.94-5.22,11.37-11.03,17.05-16.58.5-.5.95-1.04,1.42-1.56,3.59-3.98,7.16-7.93,10.7-11.8.59-.63,1.24-1.23,1.84-1.85-1.23,1.96-2.63,3.82-4.19,5.55-4.41,5.09-8.79,10.23-13.3,15.19-5.72,6.27-11.57,12.43-17.4,18.61-1.58,1.67-3.24,3.26-4.92,4.8-2.14,1.98-4.35,3.81-6.5,5.78-2.78,2.55-5.77,4.83-8.88,6.79-3.13,1.97-6.18,4.09-9.23,6.19-3.9,2.69-7.8,5.46-11.71,8.1-2.61,1.78-5.38,3.1-8.21,3.91h0s0,0,0,0ZM172.77,337.59c1.03-1.32,2.12-2.61,3.29-3.8,7.53-7.71,15.06-15.41,22.59-23.09,1.09-1.13,2.21-2.27,3.39-3.34,3.74-3.45,7.53-6.86,11.28-10.32,6.49-5.93,13.34-11.35,20.47-16.18,2.22-1.5,4.41-3.08,6.51-4.76,2.66-2.09,5.26-4.32,7.94-6.55l.19.15c-.15.21-.31.41-.46.6-4.84,5.16-9.93,10.05-15.25,14.62-1.47,1.25-3.01,2.39-4.47,3.64-5.46,4.67-10.73,9.61-15.8,14.8-.74.75-1.51,1.36-2.35,2.12-3.65,3.16-7.32,6.28-10.95,9.46-3.08,2.69-6.07,5.44-9.05,8.04-3.91,3.22-7.69,6.64-11.33,10.25-1.73,1.88-3.76,3.38-5.96,4.39l-.04-.03h0ZM269.58,249.34l-3.89,3.46,1.74-.61c-2.68,2.46-4.97,4.72-7.42,6.79-4.94,4.17-10,8.18-14.93,12.36-4.44,3.83-9.11,7.32-13.96,10.43-1.17.76-2.31,1.56-3.43,2.43-5.84,4.39-11.5,9.06-16.96,14.04-6.17,5.61-12.25,11.38-18.03,17.48-5.17,5.43-10.29,10.94-15.45,16.41-.57.73-1.29,1.33-1.95,2,1.51-2.59,3.27-5.07,5.23-7.34,4.96-5.67,10.49-10.7,15.79-16.02.16-.2.4-.36.6-.53,2.98-2.78,5.98-5.59,9.03-8.46.45-.43.89-.87,1.35-1.29,2.47-2.23,4.91-4.5,7.39-6.73,1.89-1.7,3.81-3.36,5.71-5.05,2.7-2.38,5.37-4.77,8.09-7.13,2.71-2.37,5.43-5.01,8.32-7.21,7.61-5.79,15.31-11.38,22.98-17.06.7-.51,1.36-1.08,2.03-1.63-.89.43-1.75.94-2.61,1.49-4.52,3.22-8.95,6.57-13.48,9.86-6.05,4.15-11.84,8.8-17.3,13.9-1.55,1.57-3.18,3.05-4.87,4.45-5.58,4.59-10.96,9.55-16.32,14.48-4.6,4.23-9.07,8.6-13.6,12.92-2.15,2.04-4.32,4.07-6.5,6.09,1.41-1.87,2.9-3.7,4.47-5.45,2.77-3.1,5.62-6.14,8.42-9.21,9.39-10.25,19.42-19.8,30-28.59,12.02-10.06,24.88-18.74,38.27-25.84.4-.14.8-.27,1.22-.36l.08-.05h-.02ZM277.95,245.02c-2.02,1.84-4.16,3.76-6.28,5.7,3.8-4.78,4.18-5.11,6.25-5.72l.03.02ZM259.69,244.2c-4.44.89-8.85,1.76-13.28,2.62-1.76.34-3.5.61-5.33.95.07-.27.08-.39.12-.41,2.56-1.5,5.21-2.7,7.9-3.57.25-.33.58-.75.83-.88.91-.36,1.84-.58,2.75-.69,6.44-.23,12.84-.4,19.24-.56.6.03,1.18.1,1.74.23l2.76.08c-.97.35-1.95.39-2.78.07-4.65.3-9.3.59-13.96.93-1.9.12-3.81.37-5.75.62.55.13,1.1.22,1.66.28,1.69.01,3.33.05,5.11-.06-.35.18-.73.32-1.09.42l.08-.05v.02ZM246.58,241.17c.17-.27.37-.53.59-.76,3.2-3.18,6.37-6.35,9.55-9.54,1.06-1.06,2.07-2.17,3.18-3.18,7.4-6.47,15.02-12.59,22.86-18.34,7.01-5.28,14.25-10.15,21.36-15.22,8.8-6.13,17.2-13.02,25.09-20.58,2.77-2.72,5.71-5.22,8.63-7.74,4.16-3.59,8.4-7.13,12.76-10.82-.49.63-.92,1.19-1.45,1.66-3.95,4.3-7.85,8.65-11.86,12.89-2.78,2.93-5.71,5.72-8.64,8.53-4.03,3.95-8.27,7.66-12.66,11.09-5.27,4.18-10.82,7.79-16.07,11.98-6.26,4.98-12.81,9.53-19.04,14.63-4.25,3.45-8.82,6.44-13.12,9.89-6.85,5.58-14.11,10.41-21.2,15.49l.03.02h0ZM253.95,248.3c-4.03,1.29-8.03,2.53-12.09,3.85-8.91,2.99-17.79,6.3-26.77,8.56-3.89.96-7.79,2.01-11.68,3.17-14,4.19-28.02,7.77-42.04,11.19-1.6.39-3.17.67-4.81.97.76-.44,1.54-.81,2.32-1.11,5.11-1.7,10.22-3.38,15.34-5.03,8.93-2.88,17.87-5.48,26.84-8.51,9.87-3.47,19.8-6.57,29.77-9,5.99-1.51,12-2.6,17.94-3.85.83-.23,1.65-.53,2.47-.85.79-.04,1.59-.03,2.41-.14,1.52-.19,3.04-.43,4.56-.66-1.31.32-2.86.91-4.31,1.38l.03.02h0ZM236.33,248.92c-13.92,2.42-27.88,5.87-41.78,10.33-14.01,4.36-27.87,9.39-41.82,14.27l2.14-1.07c3.86-1.85,7.76-3.55,11.56-5.58,7.64-4.04,15.43-7.54,23.3-10.46,6.01-2.21,12.08-4.04,18.15-5.88,3.19-.97,6.38-1.72,9.58-2.27,6.22-1.04,12.43-1.86,18.64-2.74.51-.06,1.01-.08,1.51-.07-.44,1.11-.79,2.1-1.37,3.53l.08-.05h0ZM146.68,279.65c.83-.26,1.66-.47,2.49-.6,1.44-.22,2.91-.28,4.4-.44.6-.12,1.2-.3,1.78-.52.46-1.09,1.35-.92,2.05-1.1,16.04-3.73,32.06-8.13,48.05-12.53,13.68-3.8,27.33-7.88,40.9-12.95,1.39-.51,2.75-.94,4.2-1.28.53-.09,1.06-.14,1.57-.12l1.02-.48.69-.08s.14-.03.17-.01l.08.31c.06.12.16.2.29.22l-.97.46-1.02.55c-2.83,1.19-5.65,2.41-8.49,3.56-3.98,1.62-7.99,3.18-11.99,4.8-9.1,3.94-18.33,7.22-27.59,9.81-9.9,2.51-19.8,4.75-29.69,6.73-8.58,1.83-17.13,3.08-25.62,3.74-.77.04-1.51.02-2.26.02l-.07-.06.03-.02ZM148.38,276.63c10.16-3.77,20.35-7.62,30.55-11.19,17.3-6.24,34.74-11.1,52.17-14.54-.03.1-.04.2-.03.3s.06.18.13.23c-.22.08-.45.16-.67.22-9.16,2.48-18.35,5.02-27.46,8.22-4.96,1.74-9.91,3.28-14.88,4.88-10.63,3.44-21.24,6.88-31.86,10.22-3.67,1.17-7.37,2.08-11.03,3.1,1.01-.56,2.03-1.03,3.07-1.45l.03.02h0ZM239.97,242.72c-.49.63-.8,1.22-1.11,1.67-6.64.88-13.06,1.59-19.51,2.63-3.94.62-7.93,1.67-11.89,2.63-2.18.52-4.35,1.33-6.52,1.94-10.26,3.04-20.42,7.14-30.33,12.24-7.09,3.54-14.18,7.06-21.25,10.56-.27.11-.55.21-.83.25.37-.33.76-.62,1.15-.88,4.7-2.8,9.37-5.59,14.09-8.38,15.31-9.12,31.44-15.64,47.68-19.3,9.19-1.8,18.35-2.98,27.42-3.53.37.02.73.06,1.09.14l.03.02h-.02ZM345.9,152.22c-18.67,14.36-37.35,28.67-57.42,40.84.21-.31.43-.59.67-.87.87-.75,1.74-1.48,2.59-2.22,9.32-7.99,19.05-15.31,29.14-21.9,7.74-5.12,15.42-10.44,23.42-15,.52-.39,1.06-.64,1.6-.91v.07s0,0,0,0ZM347.93,151.97l.22.17c-2.08,1.86-4.12,3.77-6.3,5.52-4.39,3.72-8.83,7.42-13.28,11.11-4.04,3.33-8.29,6.32-12.69,8.94-5.12,3.08-10.25,6.2-15.24,9.56-10.13,7.08-19.89,14.88-29.19,23.34-.5.44-1.05.81-1.63,1.27.15-.47.43-.91.79-1.27,2.85-3.04,5.73-6.05,8.53-9.11,2.06-2.2,4.33-4.15,6.75-5.8,1.29-.88,2.57-1.77,3.87-2.59,9.56-6.06,19.06-12.23,28.32-18.96,7.07-5.15,14.08-10.47,21.09-15.7,2.98-2.17,5.87-4.39,8.76-6.55v.07s0,.03,0,.03ZM360.47,143.63c-2.26,2.28-4.56,4.46-6.71,6.77-3.58,3.79-7.38,7.34-11.39,10.59-5.4,4.35-10.56,8.94-15.6,13.75-5.93,5.65-12.21,10.85-18.77,15.53-6.41,4.58-12.84,9.13-19.31,13.59-6.47,4.45-12.9,9.71-19.29,14.69-6.14,4.74-11.94,10.03-17.32,15.79-.91.98-1.89,1.86-2.84,2.88-2.08,2.17-4.17,4.38-6.22,6.52-.3.38-.7.67-1.07,1l-.35-.27.79-1.02c3.12-3.63,6.21-7.27,9.35-10.88,1.74-2,3.65-3.86,5.36-5.99,4.63-5.73,9.76-11.02,15.29-15.77,6.32-5.54,12.9-10.75,19.43-15.98,6.25-4.89,12.77-9.29,19.5-13.16,2.04-1.2,4.11-2.46,6.17-3.64,4.48-2.67,8.77-5.8,12.79-9.33,3.85-3.33,7.76-6.56,11.57-9.91,4.23-3.7,8.38-7.49,12.58-11.21,1.83-1.69,3.88-3.05,6.04-4.01v.07s0-.01,0-.01ZM355.47,150.08l3.92-4.14.14.1c-1.05,1.12-2.09,2.23-3.16,3.34-.24.3-.55.52-.8.77l-.1-.08h0ZM363.47,143.39c-.68,1.12-1.56,2.01-2.31,2.98-3.88,5.19-8.06,10.12-12.5,14.8-4.91,5.56-10.16,10.83-15.25,16.23-3.45,3.67-6.85,7.39-10.34,11.05-4.06,4.43-8.41,8.57-13,12.37-3.48,2.76-7.06,5.36-10.52,8.2-2.97,2.44-6.12,4.57-9.38,6.38-3.56,2.04-7.03,4.24-10.43,6.64-3.9,2.69-7.96,5.04-11.9,7.69-3.86,2.61-7.85,4.93-11.94,6.91-1.08.54-2.1.9-3.21,1.53.46-.46.95-.89,1.47-1.26,4.76-3.11,9.26-6.71,13.81-10.18,6.16-4.72,12.33-9.34,18.51-14.01,4.7-3.46,9.32-6.96,13.97-10.44,3.2-2.39,6.33-4.92,9.55-7.25,5.36-3.83,10.52-8.03,15.43-12.56,2.31-2.17,4.63-4.33,6.87-6.58,2.93-2.94,5.79-5.91,8.64-8.93,1.95-2.07,3.79-4.23,5.73-6.27,4.77-4.98,9.58-9.91,14.36-14.86.8-.9,1.62-1.69,2.42-2.48v.07s0-.02,0-.02ZM267.9,230.73c1.66-1.03,3.33-2.03,5-3.1,2.74-1.76,5.46-3.56,8.21-5.36,2.38-1.56,4.7-3.23,7.1-4.64,4.58-2.63,9.01-5.64,13.25-8.99,5.32-4.05,10.5-8.36,15.5-12.91,5.86-5.61,11.48-11.5,16.85-17.64,3.35-3.89,6.87-7.63,10.53-11.17,1.76-1.73,3.4-3.6,5.04-5.46,2.24-2.55,4.43-5.14,6.65-7.71-.21.63-.54,1.25-.94,1.8-2.65,3.66-5.3,7.33-8.02,10.91-2.26,3.06-4.64,6.04-7.15,8.89-5.89,6.62-12.09,12.93-18.57,18.89-3.2,3.02-6.53,5.87-9.98,8.54-10.82,8.18-21.97,15.76-33.37,22.71-3.29,1.97-6.63,3.82-9.94,5.75l-.18-.52h.02ZM369.74,139.03c1.37-1.51,3.14-2.54,4.94-2.87,9.12-2.19,18.24-4.51,27.43-6.65,7.65-1.8,15.3-3.48,22.94-5.05,4.59-.93,9.18-1.55,13.76-2.35,9.18-1.61,18.36-3.09,27.48-3.87,12.03-1.04,24.06-1.99,36.09-2.87,13.81-.99,27.48-1.33,41.1-1.3,11.25,0,22.37.61,33.49,1.19,8.67.34,17.15,1.46,25.36,3.32,3.78.86,7.69,1.35,11.7,1.46,4.59.25,9.06.9,13.38,1.95,2.56.61,5.16,1.18,7.67,1.81.95.25,1.82.63,2.73.94-.43.1-.86.16-1.29.19-3.79-.03-7.59-.03-11.38-.09-11.52-.23-23.05-.11-34.82.92-16.97,1.37-34.06,3.77-51.2,7.19-11.92,2.27-23.85,5.26-35.73,8.93-1.25.4-2.49.6-3.74.95-2.93,1-5.79,2.24-8.79,3.13-7.51,2.66-15.13,4.17-22.58,4.47-1.08.07-2.17.23-3.26.47-.84.21-1.68.34-2.51.39-2.34-.05-4.66-.26-6.91-.65-4.81-.98-9.56-2.12-14.22-3.42-7.89-2.25-16.1-3.71-24.54-4.37-6.53-.42-13.24-.02-20.02,1.22-9.05,1.84-18.09,4.6-27.01,8.25-.23.09-.45.19-.66.32-.61.4-.84.87-.54,1.61l1.37.3c1.46.26,2.93.44,4.31.81,6.79,1.51,13.54,3.07,20.32,4.57,4.08.9,8.34,1.32,12.7,1.24l14.63-.21c7.49-.1,15.03-.62,22.64-1.52,5.24-.44,10.54-1.44,15.81-2.97.89-.22,1.78-.38,2.66-.47-.46.31-.94.59-1.42.85-11.68,5.43-23.38,10.87-35.06,16.32-3.8,1.77-7.61,3.54-11.34,5.51-13.32,7-26.67,13.94-39.92,21.18-15.54,8.57-31.33,16.35-47.31,23.28-11.47,4.95-22.96,9.76-34.51,13.85-2.79.99-5.54,1.92-8.37,2.77-.54.18-1.1.29-1.64.31-2.29.05-4.59.11-6.88.13l-18.66-.19c-1.05,0-2.09.1-3.14.1,3.18-2.26,6.44-4.32,9.78-6.2,13.43-7.49,26.62-15.66,39.53-24.49,4.24-2.86,8.36-5.85,12.37-9.06,4.73-3.84,9.25-7.95,13.6-12.3,5.88-5.57,11.36-11.63,16.36-18.09,4.93-6.36,9.53-12.98,13.76-19.8,1.75-2.77,3.76-5.37,6.01-7.75,1.1-1.21,2.5-2.15,3.6-3.39l-.05-.04v.04ZM157.97,249.79c.44-.36.91-.71,1.38-1.01,2.96-1.92,5.97-3.75,8.93-5.77,7.14-4.85,14.29-9.65,21.33-14.68,3.26-2.47,6.42-5.1,9.48-7.88,4.05-3.48,8.02-7.08,12.04-10.61,1.64-1.44,3.3-2.91,4.98-4.28,5.54-4.53,11.14-9.13,16.62-13.59,2.11-1.87,4.36-3.53,6.7-4.95-4.23,4.34-8.44,8.69-12.79,12.66-6.49,5.91-13.09,11.65-19.72,17.44-7.05,6.2-14.38,11.99-21.95,17.3-8.51,5.76-17.31,10.82-26.33,15.13-.22.12-.44.22-.67.29v-.02ZM226.18,196.26l-1.65,1.11,1.48-1.39.17.28ZM140.32,257.34c.16-.17.33-.32.52-.47,4.5-3.01,9-6.06,13.54-9,6.36-4.11,12.68-8.27,18.84-12.78,8.43-6.16,16.84-12.32,25.12-18.6,6.15-4.67,12.43-9.18,18.71-13.68,1.68-1.23,3.38-2.33,5.1-3.48-.77.72-1.49,1.38-2.35,2.12-2.35,1.96-4.79,3.9-7.04,5.83-1.99,1.71-3.89,3.55-5.88,5.27-2.44,2.12-4.92,4.2-7.39,6.28-3.33,2.83-6.56,5.86-10.03,8.41-6.64,4.86-13.42,9.47-20.15,14.09-8.49,5.94-17.38,11.02-26.5,15.14-.91.29-1.71.52-2.53.81l.05.04h0ZM124.32,264.38c.47-.49.96-.96,1.47-1.39,9.98-7.49,19.87-15.05,29.99-22.44,11.26-8.22,22.7-16.21,34.03-24.26,4.55-3.26,9.34-6.16,14-9.23,9.71-6.36,19.43-12.68,29.13-19.07,3.66-2.43,7.29-4.91,10.86-7.46,2.1-1.5,4.11-3.18,6.14-4.79-1.04,1.53-2.32,2.88-3.78,3.98-6.29,4.8-12.56,9.6-18.88,14.36-8.06,6.03-16.15,12-24.23,17.99-7.38,5.49-14.68,11.09-22.15,16.45-6.58,4.8-13.2,9.52-19.88,14.11-5.82,4.02-11.73,7.89-17.64,11.7-3.93,2.47-7.84,4.88-11.83,7.14-2.33,1.39-4.8,2.36-7.28,2.86l.05.04h0ZM123.45,263.83c3.5-4.07,7.18-7.89,10.89-11.64,1.93-2.06,3.98-4.02,6.13-5.83,6.17-4.98,12.34-10.03,18.72-14.63,13.01-9.35,26.19-18.38,39.68-26.7.99-.63,1.92-1.42,2.91-2.14-.52.19-1.05.42-1.57.68-7.88,4.78-15.75,9.62-23.35,14.89-7.1,4.93-14.19,9.83-21.24,14.83-2.55,1.8-4.95,3.78-7.51,5.68.13-.44.4-.85.77-1.14,3.02-2.51,5.97-5.09,9.08-7.48,4.88-3.83,9.89-7.69,14.86-11.51,4.53-3.49,9.01-7.16,13.68-10.4,7.82-5.41,15.73-10.65,23.64-15.73,9.4-6.04,19.13-11.16,28.79-16.4,2.68-1.45,5.46-2.59,8.18-3.81.63-.22,1.29-.38,1.92-.47-5.42,3.1-10.73,6.53-15.9,10.25-1.68,1.23-3.31,2.52-4.95,3.78.89-.43,1.77-.92,2.62-1.48,7.58-5.52,15.48-10.45,23.57-14.72.87-.47,1.75-.9,2.65-1.35-.19.5-.54.96-.98,1.27-2.05,1.62-4.11,3.22-6.14,4.86-5.63,4.57-11.45,8.81-17.44,12.7-13,8.35-26.07,16.59-38.92,25.32-13.75,9.36-27.32,19.15-40.88,28.95-7.73,5.57-15.24,11.54-22.87,17.31-2.18,1.75-4.3,3.29-6.39,4.87l.05.04v-.02ZM194.91,193.42l-.13.17c-7.56,4.43-14.92,9.4-22.02,14.84-.04.02-.1.05-.13.1s-.06.1-.06.15c-.77.6-1.53,1.2-2.28,1.83-6.29,5.13-12.34,10.6-18.14,16.4-3.75,3.71-7.58,7.37-11.36,11.04.46-.73,1-1.42,1.59-2.04,2.85-3.02,5.71-6.03,8.57-9.04,6-6.26,12.35-12.1,19-17.49,7.08-5.84,14.65-10.87,22.51-14.98.79-.38,1.59-.72,2.4-1.01l.05.04h0ZM218.68,181.83c-.58.42-1.18.8-1.79,1.14-7.47,3.98-14.82,8.32-22.01,13.03-5.25,3.45-10.35,7.22-15.27,11.28-5.6,4.45-11.07,9.04-16.62,13.59-3.62,3-7.2,6.12-10.77,9.21-5.09,4.43-10.21,8.84-15,13.75-3.55,3.61-7.16,7.15-10.76,10.71,1.65-2.2,3.4-4.31,5.27-6.32,2.68-2.82,5.48-5.5,8.22-8.25.76-.73,1.49-1.51,2.24-2.24,4.53-4.43,9.09-8.87,13.63-13.29.57-.55,1.15-1.1,1.73-1.63,4.19-4.04,8.55-7.8,12.99-11.51,2.1-1.77,4.22-3.51,6.41-5.18,5.31-3.75,10.69-7.34,16.16-10.75.4-.18.81-.39,1.19-.63,2.78-1.63,5.5-3.35,8.34-4.97,5.23-3.04,10.57-5.71,16-8,0,0,.05.04.05.04ZM257.81,165.86c1.18-.52,2.41-.72,3.55-.58-1.1.65-1.81,1.13-2.51,1.47-1.36.66-2.72,1.35-4.09,1.91-5.56,2.04-11.06,4.43-16.49,7.16-2.98,1.65-5.96,3.27-8.93,4.93-8.66,4.65-17.18,9.72-25.53,15.19-8.51,5.74-17.22,11-25.33,17.51-6.54,5.24-13.14,10.34-19.68,15.58-4.22,3.38-8.39,6.83-12.48,10.38-4.05,3.48-8.09,7.01-11.94,10.75-5.39,5.21-10.57,10.63-15.88,15.95-.49.43-1.01.82-1.54,1.19l-.3-.47c1.62-2.29,3.38-4.49,5.25-6.58,3.02-3.09,6.11-6.13,9.16-9.2,4.44-4.55,9-9,13.7-13.19,6.18-5.36,12.25-10.82,18.55-16.08,5.48-4.63,11.14-9.13,16.6-13.57,6-4.94,12.24-9.49,18.65-13.61,6.79-4.42,13.73-8.42,20.82-11.98,12.67-5.99,25.43-11.86,38.39-16.79l.05.04h0ZM137.26,190.43c-.4.25-.8.48-1.22.68-11.27,4.58-22.37,9.98-33.23,16.16-.56.33-1.14.62-2.17,1.16.29-.32.61-.61.94-.9,10.7-7.31,22.09-12.95,33.74-16.71.65-.18,1.3-.31,1.95-.39h0ZM181.84,179.31c.81-.11,1.62-.17,2.41-.15-.33.2-.67.38-1.02.53-10.32,3.72-20.63,7.46-30.95,11.18-.82.34-1.64.74-2.44,1.19.51,0,1.04-.08,1.57-.21,3.73-1.27,7.42-2.57,11.12-3.9l22.95-8.09c.47-.14.94-.23,1.4-.3-2.71,1.62-5.43,2.95-8.1,4.41-4.63,2.53-9.34,4.81-14.1,6.83-9.1,3.85-18.19,7.74-27.28,11.68-7.5,3.21-14.96,6.49-22.45,9.74-3.09,1.38-6.29,2.59-9.38,4.06-10.22,4.9-20.39,9.87-30.6,14.8-.65.29-1.29.53-1.96.74.35-.34.73-.66,1.13-.95,3.65-2.38,7.29-4.82,11.01-7.07,4.89-2.94,9.84-5.72,14.72-8.54,3.51-1.92,6.98-3.77,10.47-5.67.58-.38,1.16-.78,1.7-1.21-.52.08-1.05.24-1.57.43-1.98.99-3.98,2-5.89,3.05-5.49,3.08-10.99,6.13-16.42,9.32-4.25,2.49-8.43,5.18-12.67,7.79-.58.36-1.18.72-1.82,1.12,1.48-1.67,3.09-3.22,4.78-4.62,3.13-2.66,6.24-5.44,9.51-7.85,14.97-10.47,30.83-18.95,47.1-25.2,15.48-5.86,31.14-10.26,46.77-13.13h0s0,.01,0,.01ZM87.45,225.83c10.04-4.91,20.18-9.91,30.46-14.04,2.93-1.17,5.88-2.35,8.7-3.71,11.95-5.43,23.96-10.57,36.02-15.43-.7.54-1.43,1.04-2.16,1.49-6.48,3.48-12.95,7-19.44,10.3-4.65,2.37-9.34,4.59-14.07,6.6-10.91,4.69-21.86,9.23-32.79,13.79-3.7,1.51-7.46,2.64-11.21,3.39,1.5-.78,2.98-1.63,4.56-2.36l-.05-.04h0ZM109.77,111.71c2.46,4.45,5.02,8.8,7.63,13.14,1.23,2.04,2.85,3.78,3.98,5.91,2.34,4.1,5.26,7.72,8.69,10.78l10.9,10.27c-.2,0-.4-.04-.57-.12-1.9-1.47-3.9-2.79-5.69-4.41-2.95-2.65-5.74-5.47-8.62-8.2-1.16-1.1-2.57-2.19-3.79-3.39-.96-.92-1.81-1.98-2.68-3.02l-1.73-2.18c0,.15-.06.35,0,.46,1.15,2.2,2.68,4.11,4.52,5.64.78.61,1.57,1.22,2.23,1.96l10.21,9.87c.47.44.96.82,1.5,1.17l10.58,7.4,7.34,5.04c-.29.03-.59.01-.87-.03-3.26-.99-6.33-2.34-9.19-4.04-2.64-1.65-5.23-3.37-7.88-4.99-2.62-1.67-5.03-3.65-7.16-5.92-4.34-4.37-8.17-9.29-11.43-14.68-1.25-1.7-2.19-3.66-2.8-5.81l1.29,1.36c-.07-.29-.04-.66-.21-.85-1.66-2.3-3.11-4.8-4.34-7.46-3.19-5.7-6.5-11.32-9.75-16.96-.23-.41-.39-.86-.6-1.29.54.07,1,.31,1.36.68,2.84,2.76,5.21,6.02,7.05,9.67h0s.04-.02.04-.02ZM118.36,117.11c.66,1.11,1.42,2.17,2.27,3.14,3.66,3.76,6.92,7.9,10.33,11.91,3.42,3.99,6.83,7.61,10.27,11.39.87.94,1.72,1.91,2.66,2.76,5.71,4.94,11.78,9.45,18.16,13.51,2.53,1.64,5.25,3.01,8.31,4.75-3.22-.67-6.3-1.69-9.2-3.03-3.17-1.45-6.31-2.94-9.47-4.43-4.04-1.8-7.74-4.19-11.03-7.11-2.69-2.48-5.49-4.88-8.09-7.47-2.98-2.71-5.7-5.72-8.12-9.01-1.08-1.6-2.05-3.31-3.1-4.94-2.04-3.21-4.18-6.38-6.16-9.65-2.2-3.65-4.26-7.39-6.37-11.12,3.84,2.33,7.07,5.49,9.55,9.35h0s0-.03,0-.03ZM106.1,103.2c.27.1.51.22.75.35,3.3,2.2,6.61,4.35,9.83,6.62,3.13,2.07,5.96,4.55,8.41,7.41,1.35,1.66,2.65,3.36,4,5.01,2.1,2.52,4.19,5.03,6.35,7.46,2.31,2.68,4.54,5.49,7.04,7.99,4.23,4.17,8.66,8.15,13.04,12.15,1.19,1.07,2.53,1.96,3.79,2.94,4.36,2.89,8.95,5.43,13.75,7.63,4.7,2.34,9.47,4.6,14.21,6.89.69.21,1.22.69,1.51,1.36-.15.03-.29.03-.44.02-7.71-1.52-14.98-4.15-21.63-7.83-4.76-2.55-9.07-5.74-13.4-8.81-3.51-2.26-6.77-4.88-9.73-7.83-3.97-4.25-7.99-8.46-11.96-12.7-.63-.67-1.22-1.38-1.84-2.08-2.26-2.64-4.56-5.26-6.78-7.96-1.46-1.75-2.93-3.47-4.23-5.36-2.26-3.24-4.94-6.08-7.99-8.48-1.78-1.38-3.42-2.92-5.11-4.4l.4-.39h0ZM185.2,165.36l-2.4-1.87c.58,0,1.12.18,1.54.51s.73.8.87,1.37h0s0,0,0,0ZM138.62,126.82c1.41,1.4,2.91,2.66,4.35,4.03,3.28,3.13,6.47,6.34,9.8,9.41,4.3,3.97,8.74,7.8,13.1,11.81,3.01,2.88,6.31,5.44,9.86,7.65.8.53,1.56,1.12,2.28,1.77-.24.09-.5.12-.73.1-.23-.02-.46-.08-.64-.21-3.18-1.6-6.34-3.2-9.5-4.84-4.69-2.37-8.97-5.42-12.74-9.07-2.72-2.69-5.62-5.16-8.42-7.75-2.07-1.92-4.22-3.76-6.12-5.89-3.24-3.65-6.35-7.46-9.45-11.3-.47-.55-.91-1.09-1.33-1.67-2.82-3.98-6.2-7.45-10.05-10.33l-1.5-1.17c-.49-.27-.93-.62-1.32-1.03l2.38,1.1,9.04,6.27c2.6,1.71,4.85,3.87,6.71,6.42,1.3,1.71,2.75,3.28,4.34,4.69h0s-.03,0-.03,0ZM145.46,118.88c-2-1.55-3.92-3.24-6.01-4.67-7.18-4.67-14.81-8.64-22.83-11.91-.79-.34-1.44-.74-2.28-1.21,1.83.48,3.76.82,5.49,1.47,11.04,3.82,21.21,9.3,30.29,16.27,5.39,4.49,10.15,9.72,14.2,15.6-.94-.87-1.76-1.86-2.68-2.71-1.91-1.79-3.79-3.63-5.83-5.23-3.37-2.56-6.88-5.01-10.35-7.59h0s0-.02,0-.02ZM163.35,134.95c1.61,1.99,3.13,4.07,4.53,6.26,1.01,1.56,1.6,3.5,2.68,5,3.38,4.72,6.92,9.33,10.37,13.94l1.04,1.26c-3.51-1-6.49-3.05-8.66-5.92-2.18-3.12-4.57-6.04-7.16-8.76-1.14-1.14-2.12-2.3-3.13-3.51l-8.57-10.36c-1.27-1.54-2.5-3.12-3.84-4.61-1.04-1.24-2.18-2.4-3.39-3.46-2.34-1.94-4.73-3.81-7.2-5.59-4.98-3.72-10.28-6.99-15.88-9.79-.65-.25-1.32-.45-2.02-.61.31.29.64.55,1,.78,4.83,2.41,9.43,5.18,13.78,8.32,3,1.99,5.88,4.17,8.59,6.52,2.87,2.62,5.41,5.63,7.99,8.57,4.35,5.08,8.71,10.15,13.06,15.22,2.23,2.35,4.17,4.99,5.78,7.89-3.02-2.47-5.92-5.05-8.82-7.62-4.06-3.64-8.13-7.25-12.17-10.89-2.38-2.15-4.73-4.33-7.06-6.55-1.96-1.83-3.91-3.68-5.79-5.58-1.17-1.11-2.28-2.3-3.31-3.56-1.61-2.19-3.52-4.12-5.68-5.73-2.56-1.75-5.04-3.64-7.66-5.31l-1.66-1.29s-.08-.08-.13-.1l-.22-.17c-.67-.48-1.42-.85-2.23-1.08l-2.1-1.63c-1.26-.83-2.55-1.58-3.84-2.37l-1.21-.5.33-.43-5.3-2.3c-.72-.21-1.35-.6-1.84-1.16-.49-.54-.83-1.24-.98-2.03,2.94,1.01,5.8,1.97,8.66,2.99,7.86,2.95,15.4,6.54,22.53,10.75,2.51,1.46,4.96,3.03,7.28,4.73,3.99,2.92,7.8,6.06,11.81,8.96,3.89,2.75,7.38,6.01,10.42,9.73l-.04-.03h.04ZM174.88,150.17c-2.23-1.98-3.86-4.58-4.79-7.61l4.79,7.61ZM187.33,165.42c-.7-.79-1.47-1.52-2.23-2.35l-5.24-5.87,11.8,10.86c-1.72-.38-3.2-1.32-4.23-2.71l-.1.05h0ZM191.86,171.34l-.17.5c-16.22-1.94-31.7-5.47-44-15.58.27,0,.53.08.74.21,3.74,1.76,7.41,3.5,11.22,5.25,2.13,1.02,4.33,1.87,6.61,2.6,6.8,2,13.65,3.9,20.52,5.77,1.67.56,3.4.88,5.1,1.26l-.04-.03h0ZM195.29,175.43c-1.56.62-3.13,1.15-4.7,1.6-1.72.37-3.42.64-5.12.8-1.74.24-3.47.46-5.22.67.26-.16.51-.29.79-.38,4.29-.94,8.56-1.86,12.82-2.75.52-.05,1-.02,1.48.08l-.04-.03h0ZM72.77,233.24c1.3-.91,2.69-1.61,4.11-2.04,4.43-1.36,8.86-2.61,13.3-3.96,1.56-.47,3.1-1.07,4.63-1.69,8.34-3.5,16.68-7,25.03-10.51,10.88-4.53,21.63-9.68,32.2-15.42,10.34-5.62,20.71-11.22,31.07-16.81,3.85-2.1,7.65-3.84,11.49-5.76l.16.43c-3.78,2.27-7.59,4.55-11.43,6.7-8.38,4.7-16.79,9.3-25.16,13.97-1.34.74-2.68,1.5-3.99,2.32-4.29,2.69-8.67,5.13-13.12,7.32-3.76,1.88-7.51,3.87-11.28,5.67-4.16,2-8.34,3.97-12.54,5.74-6.97,2.9-13.97,5.64-20.97,8.41-7.38,2.93-14.89,4.79-22.31,5.54-.38.07-.77.11-1.15.12l-.04-.03Z"/>
  </g>
</svg>